<svg width="500" height="500" viewBox="0 0 500 500" fill="none" xmlns="http://www.w3.org/2000/svg">
<path d="M488.89 246.17C483.71 192.47 456.74 138.9 433.48 109.31C334.86 -16.09 137 -15.85 42.6799 141.66C16.0899 186.08 -0.600114 284.85 19.1499 357.9C44.4199 451.4 144 487.81 254.74 487C358.21 486.15 439.57 441.16 470 379C489.09 340.13 494.07 299.87 488.89 246.17Z" fill="#37474F"/>
<path d="M42.6799 141.66C16.0899 186.08 -0.600114 284.85 19.1499 357.9C23.3148 373.586 30.0202 388.483 38.9999 402L149 338.53L242.7 284.44L462.76 157.32C453.6 138.32 443.22 121.7 433.49 109.32C334.86 -16.0895 137 -15.8495 42.6799 141.66Z" fill="#263238"/>
<path opacity="0.2" d="M305.54 326.27V313.93L287.72 303.64V291.3L269.9 281V268.67L252.09 258.38L175.09 300.38L195.09 311.87V324.21L212.91 334.49V346.84L230.73 357.12V369.47L308.79 482.28C386.09 469.23 445.1 429.87 470 379C472.88 373.12 475.443 367.197 477.69 361.23L305.54 326.27Z" fill="#F97316"/>
<path opacity="0.15" d="M195.78 85.7C143.68 115.7 101.44 196.1 101.44 265.32C101.44 306.45 116.36 334.38 139.44 343.98L148.97 338.48L242.67 284.39L252.44 278.75C275.35 242.7 290.16 197.75 290.16 156.75C290.12 87.55 247.89 55.73 195.78 85.7Z" fill="#F97316"/>
<path opacity="0.15" d="M195.78 105.72C152 130.92 116.51 198.48 116.51 256.65C116.51 314.82 152 341.56 195.78 316.38C239.56 291.2 275.06 223.61 275.06 165.44C275.06 107.27 239.57 80.5303 195.78 105.72Z" fill="#F97316"/>
<path opacity="0.15" d="M195.78 119.83C158 141.65 127.37 200.17 127.37 250.54C127.37 300.91 158 324.08 195.78 302.27C233.56 280.46 264.19 221.93 264.19 171.55C264.19 121.17 233.57 97.9999 195.78 119.83Z" fill="#F97316"/>
<path d="M155.44 252.93C155.44 209.29 181.98 158.59 214.71 139.68C229.14 131.36 242.35 130.59 252.62 136.07L239.31 128.37C228.91 122.37 215.31 122.87 200.47 131.45C167.72 150.36 141.19 201.06 141.19 244.7C141.19 268.59 149.14 285.41 161.71 292.65C163.86 293.88 171.85 298.51 175.11 300.39C163 292.88 155.44 276.28 155.44 252.93Z" fill="#F97316"/>
<path opacity="0.3" d="M155.44 252.93C155.44 209.29 181.98 158.59 214.71 139.68C229.14 131.36 242.35 130.59 252.62 136.07L239.31 128.37C228.91 122.37 215.31 122.87 200.47 131.45C167.72 150.36 141.19 201.06 141.19 244.7C141.19 268.59 149.14 285.41 161.71 292.65C163.86 293.88 171.85 298.51 175.11 300.39C163 292.88 155.44 276.28 155.44 252.93Z" fill="white"/>
<path d="M238 148.83C243.17 155.73 245.94 166.71 245.32 180.99C243.83 215.99 222.54 257.63 197.78 273.92C190.26 278.87 183.27 280.92 177.25 280.37C184.77 290.37 197.37 291.8 212.03 282.15C236.8 265.86 258.09 224.25 259.58 189.21C260.6 164.83 251.78 150.06 238 148.83Z" fill="#F97316"/>
<path opacity="0.15" d="M238 148.83C243.17 155.73 245.94 166.71 245.32 180.99C243.83 215.99 222.54 257.63 197.78 273.92C190.26 278.87 183.27 280.92 177.25 280.37C184.77 290.37 197.37 291.8 212.03 282.15C236.8 265.86 258.09 224.25 259.58 189.21C260.6 164.83 251.78 150.06 238 148.83Z" fill="black"/>
<path d="M170.54 159.55L184.79 167.78L185.93 166.25L171.68 158C171.29 158.53 170.92 159 170.54 159.55Z" fill="#F97316"/>
<path d="M164 207.21L149.7 199C149.5 199.55 149.31 200.12 149.12 200.68L163.37 208.91C163.57 208.33 163.75 207.76 164 207.21Z" fill="#F97316"/>
<path d="M229 124.74L243.26 133C243.84 133.1 244.42 133.2 244.99 133.32L230.73 125.09C230.16 124.94 229.58 124.83 229 124.74Z" fill="#F97316"/>
<path d="M157.45 231.38C157.56 230.76 157.68 230.13 157.8 229.51L143.55 221.28C143.42 221.9 143.3 222.52 143.19 223.15L157.45 231.38Z" fill="#F97316"/>
<path d="M184.55 143.55L198.8 151.78C199.29 151.31 199.8 150.84 200.28 150.39L186 142.16C185.53 142.61 185 143.08 184.55 143.55Z" fill="#F97316"/>
<path d="M157.52 272.52C157.39 271.97 157.27 271.41 157.15 270.85L157.04 270.6L142.86 262.41C142.99 263.05 143.12 263.68 143.27 264.3L157.52 272.52Z" fill="#F97316"/>
<path d="M216.57 125.11C215.97 125.23 215.35 125.39 214.74 125.54L229 133.77C229.62 133.61 230.24 133.47 230.85 133.35L216.57 125.11Z" fill="#F97316"/>
<path d="M215.6 139.2L201.35 131C201.05 131.17 200.76 131.31 200.47 131.48L199.6 132.01L213.85 140.24L214.71 139.71L215.6 139.2Z" fill="#F97316"/>
<path d="M158.46 179L172.71 187.23L173.55 185.67L159.3 177.44C159 177.94 158.73 178.46 158.46 179Z" fill="#F97316"/>
<path d="M163.57 288.22C163.25 287.67 162.95 287.12 162.64 286.55L148.4 278.33C148.7 278.9 149.02 279.45 149.34 280L163.57 288.22Z" fill="#F97316"/>
<path d="M141.19 244.86L155.44 253.1V252.93C155.44 252.32 155.44 251.69 155.44 251.07L141.18 242.84C141.18 243.46 141.18 244.09 141.18 244.7L141.19 244.86Z" fill="#F97316"/>
<path d="M214.71 139.68C181.98 158.59 155.44 209.29 155.44 252.93C155.44 296.57 181.98 316.64 214.71 297.74C247.44 278.84 274 228.14 274 184.49C274 140.84 247.45 120.78 214.71 139.68ZM259.55 189.21C258.06 224.21 236.77 265.85 212 282.14C187.23 298.43 168.38 283.24 169.87 248.21C171.36 213.18 192.67 171.57 217.42 155.28C242.17 138.99 261.05 154.18 259.55 189.21Z" fill="#F97316"/>
<g opacity="0.15">
<path d="M202.58 168.451C203.06 167.921 203.53 167.381 204.02 166.861L200.27 150.391C199.77 150.841 199.27 151.301 198.79 151.771L202.58 168.451Z" fill="black"/>
<path d="M213.84 140.2V157.86C214.42 157.41 215 156.97 215.59 156.55V139.19L214.71 139.68L213.84 140.2Z" fill="black"/>
<path d="M225.89 150.841C226.53 150.591 227.17 150.361 227.8 150.161L230.8 133.341C230.19 133.461 229.57 133.601 228.95 133.751L225.89 150.841Z" fill="black"/>
<path d="M177.57 211.61L178.2 209.95L164 207.2C163.8 207.76 163.6 208.32 163.41 208.88L177.57 211.61Z" fill="black"/>
<path d="M184.3 196L185.1 194.4L173.54 185.66L172.71 187.23L184.3 196Z" fill="black"/>
<path d="M271.57 163.53L259 175.32C259.1 176.02 259.19 176.73 259.27 177.47L272.08 165.47C271.89 164.83 271.74 164.17 271.57 163.53Z" fill="black"/>
<path d="M170.3 242.5L155.46 251.06C155.46 251.69 155.46 252.31 155.46 252.93V253.1L170.12 244.64C170.15 243.93 170.23 243.21 170.3 242.5Z" fill="black"/>
<path d="M172.7 228.001C172.85 227.371 173.01 226.741 173.16 226.101L157.79 229.491C157.67 230.111 157.55 230.741 157.44 231.361L172.7 228.001Z" fill="black"/>
<path d="M237.7 148.82C238.31 148.87 238.9 148.94 239.48 149.04L245 133.27C244.42 133.15 243.84 133.04 243.25 132.94L237.7 148.82Z" fill="black"/>
<path d="M255.14 161.94C255.42 162.53 255.69 163.15 255.95 163.78L266.25 149.91C265.94 149.35 265.61 148.81 265.25 148.28L255.14 161.94Z" fill="black"/>
<path d="M247.86 152.651C248.33 153.011 248.79 153.391 249.24 153.801L257 138.941C256.53 138.571 256.06 138.221 255.57 137.881L247.86 152.651Z" fill="black"/>
<path d="M192.67 181.44L193.75 179.81L185.92 166.24L184.78 167.78L192.67 181.44Z" fill="black"/>
<path d="M227.15 268.631C226.68 269.181 226.15 269.711 225.72 270.231L229.47 286.751C229.97 286.301 230.47 285.811 230.95 285.341L227.15 268.631Z" fill="black"/>
<path d="M245.74 240.221C245.48 240.761 245.21 241.291 244.94 241.821L256.53 250.581L257.34 248.991L245.74 240.221Z" fill="black"/>
<path d="M237.28 255.2L236.2 256.84L244.05 270.44C244.43 269.93 244.82 269.44 245.19 268.91L237.28 255.2Z" fill="black"/>
<path d="M252.42 224.23C252.22 224.79 252.03 225.35 251.82 225.9L266.02 228.64C266.22 228.08 266.41 227.52 266.6 226.96L252.42 224.23Z" fill="black"/>
<path d="M257.11 207.641C256.98 208.271 256.85 208.901 256.7 209.521L272 206.171C272.11 205.541 272.21 204.921 272.32 204.301L257.11 207.641Z" fill="black"/>
<path d="M274 182.65L259.44 191C259.44 191.7 259.35 192.4 259.3 193.11L274 184.66V184.49C274 183.87 274 183.26 274 182.65Z" fill="black"/>
<path d="M215.59 297.21V279.57C215.01 280.02 214.42 280.46 213.84 280.88V298.24L214.71 297.74C215 297.57 215.3 297.38 215.59 297.21Z" fill="black"/>
<path d="M173.81 274.44C173.54 273.83 173.28 273.2 173.03 272.54L162.64 286.54C162.94 287.11 163.26 287.67 163.58 288.21L173.81 274.44Z" fill="black"/>
<path d="M180.94 284.29C180.48 283.91 180.03 283.51 179.59 283.08L171.79 298C172.25 298.38 172.72 298.74 173.2 299.09L180.94 284.29Z" fill="black"/>
<path d="M203.2 286.73C202.56 286.97 201.93 287.18 201.3 287.38L198.3 304.15C198.92 304.03 199.54 303.9 200.16 303.75L203.2 286.73Z" fill="black"/>
<path d="M191.15 288.561C190.55 288.501 189.97 288.411 189.39 288.301L183.93 304.001C184.51 304.141 185.09 304.251 185.67 304.351L191.15 288.561Z" fill="black"/>
<path d="M170.27 260.61C170.19 259.89 170.12 259.15 170.06 258.4L157.06 270.53C157.2 271.2 157.34 271.86 157.49 272.53L170.27 260.61Z" fill="black"/>
</g>
<path d="M230.71 369.48L162.97 330.37V293.34L177.23 301.57L195.07 311.88V324.22L212.89 334.5V346.85L230.71 357.13V369.48Z" fill="#263238"/>
<path d="M177.25 301.59L252.09 258.38L269.9 268.67L195.07 311.88L177.25 301.59Z" fill="#455A64"/>
<path d="M195.07 311.88V324.22L269.9 281.01V268.67L195.07 311.88Z" fill="#37474F"/>
<path d="M195.07 324.22L269.9 281.01L287.72 291.3L212.89 334.5L195.07 324.22Z" fill="#455A64"/>
<path d="M212.89 334.5V346.85L287.72 303.64V291.3L212.89 334.5Z" fill="#37474F"/>
<path d="M212.89 346.85L287.72 303.64L305.54 313.93L230.71 357.13L212.89 346.85Z" fill="#455A64"/>
<path d="M230.71 357.13V369.48L305.54 326.27V313.93L230.71 357.13Z" fill="#37474F"/>
<path d="M252.14 185C250.65 220 229.35 261.64 204.59 277.94C195.39 283.99 187.01 285.7 180.17 283.65C173.17 277.26 169.17 265.02 169.87 248.23C171.37 213.23 192.67 171.59 217.42 155.3C226.63 149.24 235.03 147.54 241.86 149.6C248.9 156 252.86 168.2 252.14 185Z" fill="#F97316"/>
<path opacity="0.9" d="M252.14 185C250.65 220 229.35 261.64 204.59 277.94C195.39 283.99 187.01 285.7 180.17 283.65C173.17 277.26 169.17 265.02 169.87 248.23C171.37 213.23 192.67 171.59 217.42 155.3C226.63 149.24 235.03 147.54 241.86 149.6C248.9 156 252.86 168.2 252.14 185Z" fill="white"/>
<path opacity="0.1" d="M204.48 260C196.75 260.895 189.597 264.531 184.32 270.25C181.469 273.31 179.144 276.821 177.44 280.64C178.263 281.716 179.176 282.72 180.17 283.64C181.642 284.07 183.159 284.332 184.69 284.42C185.09 283.42 185.39 282.37 185.74 281.36C187.469 276.657 190.551 272.571 194.597 269.615C198.644 266.66 203.474 264.967 208.48 264.75C211.91 264.66 215.31 265.28 218.72 265.55C220.07 264.06 221.39 262.55 222.72 260.91C216.68 260.6 210.45 259.4 204.48 260ZM203 208.79C210 209.7 217.64 210.09 223.76 206.51C230.69 202.45 233.98 194.4 237.32 187.11C240.43 180.34 244.68 173.19 251.47 170.57C250.06 161.1 246.68 153.97 241.85 149.57C238.556 148.622 235.083 148.474 231.72 149.14C228.332 153.019 225.864 157.613 224.5 162.58C222.9 168.18 222.34 174.13 219.77 179.34C217.153 184.578 212.71 188.679 207.28 190.87C203 192.57 198.35 192.98 193.8 193.68C190.626 194.149 187.488 194.837 184.41 195.74C182.035 200.458 179.918 205.302 178.07 210.25C179.298 209.622 180.575 209.097 181.89 208.68C188.68 206.59 196 207.89 203 208.79ZM210.16 173.79C212.4 169.92 213.16 165.41 214.39 161.1C214.83 159.49 215.39 157.92 215.91 156.35C214.31 157.477 212.723 158.703 211.15 160.03C208.89 165.52 206.69 171.03 202.52 175.17C200.394 177.252 197.857 178.867 195.07 179.91C194.543 180.086 194.001 180.21 193.45 180.28C192.43 181.78 191.43 183.313 190.45 184.88C192.706 184.699 194.942 184.317 197.13 183.74C202.548 182.114 207.185 178.565 210.17 173.76L210.16 173.79ZM252.16 179.86C250.204 180.873 248.433 182.209 246.92 183.81C243.2 187.89 241.2 193.18 238.92 198.22C235.74 205.4 231.59 212.71 224.68 216.43C220.08 218.9 214.68 219.52 209.51 219.66C199.66 219.93 189.66 218.66 180.03 220.77C177.954 221.223 175.925 221.869 173.97 222.7C173.303 225.093 172.72 227.477 172.22 229.85C174.462 228.663 176.835 227.74 179.29 227.1C193.52 223.5 209.29 231.4 222.92 226.1C232.92 222.19 239.01 212.26 243.92 202.72C245.92 198.83 248.07 194.72 251.52 192.14C251.787 189.76 251.973 187.4 252.08 185.06C252.21 183.21 252.23 181.5 252.2 179.83L252.16 179.86ZM216.66 238.15C208.96 238.43 201.27 237.71 193.57 237.6C189.625 237.385 185.67 237.79 181.85 238.8C178.506 239.931 175.361 241.581 172.53 243.69C171.66 244.31 170.82 244.95 169.99 245.6C169.93 246.49 169.87 247.37 169.83 248.24C169.4 258.39 170.69 266.86 173.32 273.4C175.02 271.925 176.531 270.245 177.82 268.4C183.11 261.25 188.21 253.34 196.23 249.51C204.84 245.4 214.99 246.87 224.35 244.99C228.444 244.154 232.378 242.665 236 240.58C237.48 237.807 238.877 234.98 240.19 232.1C239.79 232.34 239.38 232.57 238.97 232.8C232.2 236.51 224.39 237.84 216.7 238.12L216.66 238.15Z" fill="#F97316"/>
<path d="M269.61 123.37C269.61 126.77 268.97 129.79 264.81 130.52C269.07 130.7 269.37 133.52 269.61 137.46C269.75 133.55 270.12 130.7 273.98 130.52C270 129.86 269.61 126.77 269.61 123.37Z" fill="#F97316"/>
<path d="M172.55 304.381C172.55 307.781 171.91 310.801 167.75 311.531C172.01 311.711 172.31 314.531 172.55 318.471C172.69 314.551 173.06 311.711 176.92 311.531C172.92 310.861 172.55 307.781 172.55 304.381Z" fill="#F97316"/>
<path d="M141.28 199.62C141.28 201.11 141 202.42 139.18 202.74C141.04 202.82 141.18 204.07 141.28 205.74C141.34 204.03 141.5 202.74 143.19 202.74C141.44 202.45 141.28 201.11 141.28 199.62Z" fill="#F97316"/>
<path d="M133.1 205.471C133.1 208.861 132.45 211.881 128.3 212.611C132.56 212.791 132.86 215.611 133.1 219.561C133.23 215.641 133.6 212.801 137.47 212.611C133.47 212.001 133.1 208.861 133.1 205.471Z" fill="#E0E0E0"/>
<path d="M129.2 188.431C129.2 190.181 128.87 191.721 126.74 192.101C128.92 192.191 129.08 193.651 129.2 195.661C129.27 193.661 129.46 192.191 131.45 192.101C129.39 191.761 129.2 190.181 129.2 188.431Z" fill="#E0E0E0"/>
<path d="M258.06 113.15C258.06 115.15 258.01 117.05 255.14 117.5C258.14 117.5 257.94 119.37 258.09 121.77C258.17 119.37 258.38 117.65 260.75 117.54C258.3 117.13 258.37 116 258.06 113.15Z" fill="#E0E0E0"/>
<path d="M283 205.7C282.79 209.45 282.49 211.07 279.1 211.52C282.55 211.71 282.84 214 283.04 217.19C283.15 214 283.43 211.68 286.58 211.52C283.34 211 283.26 209.5 283 205.7Z" fill="#E0E0E0"/>
<path d="M158.77 304.41C158.65 306.6 158.48 307.54 156.5 307.81C158.5 307.92 158.68 309.24 158.8 311.1C158.86 309.24 159.02 307.89 160.86 307.81C159 307.49 158.92 306.63 158.77 304.41Z" fill="#E0E0E0"/>
<path d="M275.92 119.891C275.92 121.101 275.92 122.261 274.15 122.531C275.99 122.531 275.85 123.661 275.94 125.111C275.99 123.661 276.11 122.621 277.54 122.551C276.06 122.301 276.1 121.621 275.92 119.891Z" fill="#E0E0E0"/>
<path d="M279.69 216.601C279.69 217.801 279.69 218.961 277.92 219.231C279.75 219.231 279.61 220.371 279.7 221.821C279.75 220.371 279.88 219.321 281.31 219.261C279.83 219.001 279.87 218.321 279.69 216.601Z" fill="#E0E0E0"/>
<path d="M168 299.641C168 300.841 168 302.001 166.23 302.271C168.07 302.271 167.93 303.401 168.02 304.851C168.07 303.401 168.2 302.361 169.63 302.291C168.17 302.051 168.21 301.361 168 299.641Z" fill="#E0E0E0"/>
<path d="M367.25 289.58L398.74 271.4L446.28 298.84L469.09 285.67L421.56 258.23L437 249.31L412 234.86L396.56 243.78L369 227.89L346.18 241.07L373.71 257L315 290.84L333.37 301.44L481.55 341.22L484.43 339.56C485.843 333.88 487.013 328.083 487.94 322.17L367.25 289.58Z" fill="#263238"/>
<path d="M370.21 150.09L369.03 150.77V112.35L354.77 104.12L337.13 114.3L351.68 59.6001L337.43 51.3701L312.9 65.5301L273.26 213.75V235L287.51 243.23L332 217.53V232.84L346.26 241.07L369 227.89V196.13L384.43 187.22V158.32L370.21 150.09ZM332 172.18L319.93 179.18L332 133.76V172.18Z" fill="#F97316"/>
<path opacity="0.3" d="M370.21 150.09L369.03 150.77V112.35L354.77 104.12L337.13 114.3L351.68 59.6001L337.43 51.3701L312.9 65.5301L273.26 213.75V235L287.51 243.23L332 217.53V232.84L346.26 241.07L369 227.89V196.13L384.43 187.22V158.32L370.21 150.09ZM332 172.18L319.93 179.18L332 133.76V172.18Z" fill="black"/>
<path d="M369.02 167.231V112.351L346.21 125.521V180.411L314.71 198.591L351.68 59.6006L327.15 73.7606L287.51 221.981V243.191L346.21 209.311V241.071L369.02 227.891V196.131L384.46 187.221V158.321L369.02 167.231Z" fill="#F97316"/>
<path opacity="0.3" d="M369.02 167.231V112.351L346.21 125.521V180.411L314.71 198.591L351.68 59.6006L327.15 73.7606L287.51 221.981V243.191L346.21 209.311V241.071L369.02 227.891V196.131L384.46 187.221V158.321L369.02 167.231Z" fill="white"/>
<path d="M351.68 59.6001L337.43 51.3701L312.9 65.5301L327.15 73.7601L351.68 59.6001Z" fill="#F97316"/>
<path opacity="0.5" d="M351.68 59.6001L337.43 51.3701L312.9 65.5301L327.15 73.7601L351.68 59.6001Z" fill="white"/>
<path d="M354.77 104.12L369.02 112.35L346.21 125.52L335.75 119.48L337.13 114.3L354.77 104.12Z" fill="#F97316"/>
<path opacity="0.5" d="M354.77 104.12L369.02 112.35L346.21 125.52L335.75 119.48L337.13 114.3L354.77 104.12Z" fill="white"/>
<path d="M346.21 180.41L331.95 172.18L319.88 179.15L314.71 198.59L346.21 180.41Z" fill="#F97316"/>
<path opacity="0.5" d="M346.21 180.41L331.95 172.18L319.88 179.15L314.71 198.59L346.21 180.41Z" fill="white"/>
<path d="M384.46 158.32L370.21 150.09L369.02 150.77V167.23L384.46 158.32Z" fill="#F97316"/>
<path opacity="0.5" d="M369.02 167.23L384.46 158.32L370.21 150.09L369.02 150.77V167.23Z" fill="white"/>
<path d="M287.51 221.98L273.26 213.75L312.9 65.5303L327.15 73.7603L287.51 221.98Z" fill="#F97316"/>
<path opacity="0.15" d="M287.51 221.98L273.26 213.75L312.9 65.5303L327.15 73.7603L287.51 221.98Z" fill="black"/>
<path d="M205.45 383L180.42 368.55L164.99 377.46L137.48 361.58L114.66 374.75L142.17 390.63L83.4697 424.52L101.84 435.13L250.03 474.91L274.56 460.75L135.7 423.27L167.2 405.08L214.73 432.53L237.55 419.35L190.01 391.91L205.45 383Z" fill="#263238"/>
<path d="M138.66 283.769L137.48 284.459V245.999L123.22 237.769L105.58 247.999L120.13 193.299L105.88 185.069L81.35 199.209L41.71 347.439V368.649L56 376.879L100.45 351.219V366.519L114.7 374.749L137.52 361.579V329.809L152.95 320.899V291.999L138.66 283.769ZM100.41 305.859L88.34 312.859L100.41 267.479V305.859Z" fill="#F97316"/>
<path opacity="0.3" d="M138.66 283.769L137.48 284.459V245.999L123.22 237.769L105.58 247.999L120.13 193.299L105.88 185.069L81.35 199.209L41.71 347.439V368.649L56 376.879L100.45 351.219V366.519L114.7 374.749L137.52 361.579V329.809L152.95 320.899V291.999L138.66 283.769ZM100.41 305.859L88.34 312.859L100.41 267.479V305.859Z" fill="black"/>
<path d="M137.48 300.92V246.03L114.66 259.2V314.09L83.16 332.27L120.14 193.28L95.61 207.44L55.96 355.66V376.88L114.66 342.99V374.75L137.48 361.58V329.81L152.91 320.9V292L137.48 300.92Z" fill="#F97316"/>
<path opacity="0.3" d="M137.48 300.92V246.03L114.66 259.2V314.09L83.16 332.27L120.14 193.28L95.61 207.44L55.96 355.66V376.88L114.66 342.99V374.75L137.48 361.58V329.81L152.91 320.9V292L137.48 300.92Z" fill="white"/>
<path d="M120.14 193.28L105.88 185.05L81.3501 199.21L95.6101 207.44L120.14 193.28Z" fill="#F97316"/>
<path opacity="0.5" d="M120.14 193.28L105.88 185.05L81.3501 199.21L95.6101 207.44L120.14 193.28Z" fill="white"/>
<path d="M123.22 237.8L137.48 246.03L114.66 259.2L104.2 253.17L105.58 247.99L123.22 237.8Z" fill="#F97316"/>
<path opacity="0.5" d="M123.22 237.8L137.48 246.03L114.66 259.2L104.2 253.17L105.58 247.99L123.22 237.8Z" fill="white"/>
<path d="M114.66 314.089L100.41 305.859L88.3401 312.829L83.1602 332.269L114.66 314.089Z" fill="#F97316"/>
<path opacity="0.5" d="M114.66 314.089L100.41 305.859L88.3401 312.829L83.1602 332.269L114.66 314.089Z" fill="white"/>
<path d="M152.91 292L138.66 283.77L137.48 284.46V300.92L152.91 292Z" fill="#F97316"/>
<path opacity="0.5" d="M137.48 300.92L152.91 292L138.66 283.77L137.48 284.46V300.92Z" fill="white"/>
<path d="M55.96 355.66L41.71 347.44L81.35 199.21L95.61 207.44L55.96 355.66Z" fill="#F97316"/>
<path opacity="0.15" d="M55.96 355.66L41.71 347.44L81.35 199.21L95.61 207.44L55.96 355.66Z" fill="black"/>
<path d="M153.37 113.461C153.95 110.721 142.78 117.171 142.2 119.911L145.8 129.601C145.921 129.892 146.131 130.137 146.4 130.301C147.19 130.791 150.1 132.431 150.35 132.581C150.551 132.706 150.778 132.784 151.013 132.808C151.249 132.832 151.487 132.802 151.709 132.72C151.931 132.638 152.131 132.506 152.294 132.335C152.458 132.163 152.579 131.957 152.65 131.731L157.32 115.731C157.61 114.391 153.37 113.461 153.37 113.461Z" fill="#F97316"/>
<path opacity="0.25" d="M153.37 113.461C153.95 110.721 142.78 117.171 142.2 119.911L145.8 129.601C145.921 129.892 146.131 130.137 146.4 130.301C147.19 130.791 150.1 132.431 150.35 132.581C150.551 132.706 150.778 132.784 151.013 132.808C151.249 132.832 151.487 132.802 151.709 132.72C151.931 132.638 152.131 132.506 152.294 132.335C152.458 132.163 152.579 131.957 152.65 131.731L157.32 115.731C157.61 114.391 153.37 113.461 153.37 113.461Z" fill="black"/>
<path d="M191.35 60.0004L98.1502 113.76C97.7159 114.047 97.3549 114.432 97.0962 114.883C96.8374 115.335 96.6881 115.841 96.6602 116.36V146.77C96.6868 147.29 96.8367 147.796 97.0975 148.246C97.3583 148.697 97.7226 149.079 98.1602 149.36L99.0901 149.9C99.5556 150.134 100.069 150.256 100.59 150.256C101.111 150.256 101.625 150.134 102.09 149.9L195.29 96.0004C195.727 95.7181 196.091 95.3361 196.352 94.8859C196.612 94.4356 196.763 93.93 196.79 93.4104V63.0804C196.764 62.5607 196.614 62.0547 196.353 61.6044C196.092 61.154 195.728 60.7722 195.29 60.4904L194.35 59.9504C193.881 59.7242 193.365 59.6109 192.844 59.6196C192.323 59.6283 191.812 59.7587 191.35 60.0004Z" fill="#F97316"/>
<path opacity="0.25" d="M191.35 60.0004L98.1502 113.76C97.7159 114.047 97.3549 114.432 97.0962 114.883C96.8374 115.335 96.6881 115.841 96.6602 116.36V146.77C96.6868 147.29 96.8367 147.796 97.0975 148.246C97.3583 148.697 97.7226 149.079 98.1602 149.36L99.0901 149.9C99.5556 150.134 100.069 150.256 100.59 150.256C101.111 150.256 101.625 150.134 102.09 149.9L195.29 96.0004C195.727 95.7181 196.091 95.3361 196.352 94.8859C196.612 94.4356 196.763 93.93 196.79 93.4104V63.0804C196.764 62.5607 196.614 62.0547 196.353 61.6044C196.092 61.154 195.728 60.7722 195.29 60.4904L194.35 59.9504C193.881 59.7242 193.365 59.6109 192.844 59.6196C192.323 59.6283 191.812 59.7587 191.35 60.0004Z" fill="black"/>
<path d="M196.79 63.0803V63.6703C196.791 63.4276 196.728 63.1891 196.607 62.9786C196.487 62.7681 196.312 62.5932 196.103 62.4715C195.893 62.3498 195.654 62.2856 195.412 62.2854C195.169 62.2852 194.931 62.349 194.72 62.4703L102.66 115.65C102.031 116.009 101.51 116.531 101.15 117.16L97.1504 114.82C97.4028 114.351 97.7756 113.958 98.2304 113.68L191.35 60.0003C191.816 59.7664 192.329 59.6445 192.85 59.6445C193.371 59.6445 193.885 59.7664 194.35 60.0003L195.29 60.5403C195.721 60.8171 196.082 61.1911 196.342 61.6322C196.603 62.0732 196.756 62.5692 196.79 63.0803Z" fill="#F97316"/>
<path opacity="0.45" d="M196.79 63.0803V63.6703C196.791 63.4276 196.728 63.1891 196.607 62.9786C196.487 62.7681 196.312 62.5932 196.103 62.4715C195.893 62.3498 195.654 62.2856 195.412 62.2854C195.169 62.2852 194.931 62.349 194.72 62.4703L102.66 115.65C102.031 116.009 101.51 116.531 101.15 117.16L97.1504 114.82C97.4028 114.351 97.7756 113.958 98.2304 113.68L191.35 60.0003C191.816 59.7664 192.329 59.6445 192.85 59.6445C193.371 59.6445 193.885 59.7664 194.35 60.0003L195.29 60.5403C195.721 60.8171 196.082 61.1911 196.342 61.6322C196.603 62.0732 196.756 62.5692 196.79 63.0803Z" fill="white"/>
<path d="M195.41 62.8203C195.262 62.82 195.116 62.8616 194.99 62.9403L102.93 116.12C102.385 116.436 101.933 116.89 101.619 117.436C101.305 117.982 101.139 118.6 101.14 119.23V148.31C101.14 148.6 101.14 149.25 101.74 149.25C101.975 149.238 102.202 149.166 102.4 149.04L147.12 123.21L150.12 131.49C150.247 131.779 150.459 132.023 150.727 132.189C150.996 132.355 151.308 132.436 151.623 132.421C151.939 132.406 152.242 132.295 152.493 132.104C152.744 131.913 152.931 131.65 153.03 131.35L157.03 117.47L194.43 95.8803C195.68 95.1703 196.23 94.4403 196.23 93.5303V63.6703C196.23 63.45 196.145 63.2382 195.992 63.0796C195.839 62.9211 195.63 62.8281 195.41 62.8203Z" fill="#263238"/>
<path d="M101.74 149.79C101.05 149.79 100.6 149.21 100.6 148.31V119.23C100.601 118.507 100.791 117.796 101.153 117.17C101.514 116.543 102.034 116.023 102.66 115.66L194.72 62.48C194.928 62.3549 195.167 62.2891 195.41 62.29C195.775 62.2927 196.125 62.4389 196.383 62.6971C196.641 62.9554 196.787 63.3049 196.79 63.67V93.53C196.731 94.1429 196.507 94.7284 196.143 95.2247C195.779 95.7211 195.287 96.1099 194.72 96.35L157.51 117.83L153.51 131.5C153.384 131.909 153.135 132.269 152.797 132.53C152.458 132.792 152.047 132.942 151.62 132.96C151.2 132.977 150.784 132.867 150.427 132.644C150.07 132.421 149.789 132.096 149.62 131.71L146.83 124L102.67 149.51C102.39 149.684 102.069 149.78 101.74 149.79ZM195.41 63.36C195.361 63.3464 195.309 63.3464 195.26 63.36L103.2 116.58C102.736 116.85 102.351 117.237 102.083 117.702C101.814 118.166 101.672 118.693 101.67 119.23V148.31C101.662 148.454 101.689 148.599 101.75 148.73C101.885 148.704 102.014 148.653 102.13 148.58L147.4 122.43L150.6 131.31C150.678 131.507 150.817 131.674 150.996 131.787C151.176 131.899 151.386 131.952 151.598 131.938C151.809 131.924 152.01 131.842 152.172 131.706C152.335 131.57 152.449 131.386 152.5 131.18L156.6 117.12L156.78 117.01L194.18 95.42C195.53 94.64 195.72 94.03 195.72 93.53V63.67C195.718 63.5886 195.684 63.5112 195.627 63.4536C195.569 63.396 195.492 63.3626 195.41 63.36Z" fill="#F97316"/>
<path opacity="0.3" d="M109.74 138.001C109.15 138.001 108.45 137.591 108.45 136.421V121.921C108.428 121.491 108.524 121.062 108.729 120.683C108.933 120.304 109.238 119.988 109.61 119.771L109.95 119.571C110.205 119.421 110.494 119.338 110.79 119.331C111.086 119.336 111.373 119.436 111.609 119.616C111.845 119.796 112.017 120.046 112.1 120.331L113.8 124.581V118.851C113.779 118.421 113.876 117.993 114.08 117.614C114.285 117.235 114.589 116.919 114.96 116.701L115.15 116.591C115.397 116.44 115.68 116.357 115.97 116.351C116.258 116.35 116.537 116.449 116.759 116.632C116.982 116.814 117.134 117.068 117.19 117.351C117.273 117.08 117.377 116.816 117.5 116.561L118.05 115.561C118.315 115.015 118.731 114.556 119.25 114.241L122.56 112.331C122.84 112.159 123.161 112.066 123.49 112.061C123.855 112.058 124.21 112.186 124.49 112.421C124.513 112.037 124.63 111.665 124.831 111.338C125.031 111.01 125.309 110.736 125.64 110.541L131.02 107.441C131.265 107.284 131.549 107.197 131.84 107.191C132.44 107.191 133.13 107.611 133.13 108.801V109.001C133.147 109.423 133.048 109.843 132.844 110.213C132.639 110.583 132.337 110.891 131.97 111.101L130.75 111.811C130.67 111.811 130.54 111.931 130.54 112.311V124.731C130.562 125.16 130.467 125.587 130.264 125.966C130.061 126.345 129.759 126.661 129.39 126.881L129.2 126.991C128.951 127.139 128.669 127.222 128.38 127.231C127.75 127.231 127.09 126.811 127.09 125.631V113.941L126.59 114.231C126.341 114.388 126.054 114.474 125.76 114.481H125.7V126.161C125.693 126.774 125.542 127.377 125.26 127.921L124.71 128.981C124.445 129.524 124.028 129.979 123.51 130.291L120.22 132.191C119.92 132.378 119.573 132.475 119.22 132.471C118.883 132.472 118.555 132.359 118.29 132.151L117.72 131.731C117.499 131.56 117.324 131.336 117.21 131.081V132.451C117.23 132.877 117.132 133.3 116.928 133.674C116.723 134.048 116.419 134.358 116.05 134.571L115.86 134.681C115.608 134.839 115.318 134.926 115.02 134.931C114.725 134.923 114.44 134.823 114.207 134.643C113.973 134.463 113.803 134.214 113.72 133.931L111.86 129.331V135.481C111.88 135.908 111.782 136.332 111.577 136.708C111.373 137.083 111.069 137.396 110.7 137.611L110.51 137.721C110.281 137.878 110.016 137.974 109.74 138.001ZM120.74 117.611C120.67 117.611 120.54 117.731 120.54 118.091V127.751L122.08 126.871C122.15 126.871 122.28 126.751 122.28 126.391V116.731L120.74 117.611ZM136.29 122.691C135.7 122.691 135 122.281 135 121.111V106.631C134.982 106.204 135.081 105.78 135.285 105.405C135.49 105.03 135.792 104.718 136.16 104.501L141.53 101.411C141.775 101.253 142.059 101.166 142.35 101.161C142.599 101.159 142.843 101.234 143.049 101.375C143.255 101.516 143.412 101.717 143.5 101.951C143.56 101.783 143.63 101.62 143.71 101.461L144.26 100.461C144.522 99.9127 144.939 99.4537 145.46 99.1408L148.77 97.2308C149.05 97.058 149.371 96.9646 149.7 96.9608C150.064 96.9546 150.419 97.0787 150.7 97.3108L151.21 97.7008C151.435 97.8747 151.613 98.1014 151.73 98.3608V96.9408C151.71 96.5136 151.808 96.0893 152.012 95.7138C152.217 95.3382 152.52 95.0259 152.89 94.8108L153.08 94.7008C153.327 94.5497 153.61 94.4669 153.9 94.4608C154.49 94.4608 155.19 94.8708 155.19 96.0408V107.771L156.72 106.881C156.8 106.881 156.93 106.761 156.93 106.381V93.9408C156.901 93.5224 156.985 93.104 157.173 92.7293C157.362 92.3546 157.647 92.0374 158 91.8108L158.19 91.7008C158.437 91.5497 158.72 91.4669 159.01 91.4608C159.233 91.4583 159.451 91.5178 159.642 91.6326C159.833 91.7473 159.988 91.9129 160.09 92.1108C160.068 91.6805 160.164 91.2524 160.369 90.8732C160.573 90.494 160.878 90.1784 161.25 89.9608L161.59 89.7708C161.838 89.6122 162.125 89.5256 162.42 89.5208C162.718 89.5238 163.007 89.6227 163.245 89.8027C163.483 89.9828 163.656 90.2346 163.74 90.5208L165.44 94.7708V89.0008C165.419 88.5722 165.517 88.1461 165.721 87.7689C165.926 87.3916 166.23 87.0776 166.6 86.8608L166.78 86.7508C167.026 86.5949 167.309 86.5085 167.6 86.5008C167.826 86.4994 168.048 86.5615 168.241 86.6799C168.433 86.7983 168.589 86.9684 168.69 87.1708C168.667 86.733 168.767 86.2974 168.979 85.9138C169.191 85.5301 169.507 85.2137 169.89 85.0008L174.23 82.5008C174.513 82.3264 174.837 82.2298 175.17 82.2208C175.535 82.22 175.889 82.3474 176.17 82.5808L176.68 82.9708C176.923 83.1724 177.116 83.4289 177.241 83.7192C177.366 84.0095 177.42 84.3253 177.4 84.6408V96.3208C177.392 96.9368 177.241 97.5425 176.96 98.0908L176.41 99.0908C176.141 99.6373 175.721 100.095 175.2 100.411L170.84 103.001C170.591 103.149 170.309 103.232 170.02 103.241C169.796 103.245 169.575 103.187 169.382 103.072C169.189 102.957 169.033 102.79 168.93 102.591C168.95 103.017 168.853 103.44 168.65 103.815C168.448 104.19 168.147 104.503 167.78 104.721L167.59 104.821C167.335 104.981 167.041 105.068 166.74 105.071C166.454 105.066 166.177 104.973 165.947 104.804C165.716 104.636 165.542 104.401 165.45 104.131L163.58 99.5208V105.681C163.599 106.105 163.502 106.527 163.299 106.9C163.097 107.274 162.796 107.585 162.43 107.801L162.24 107.911C161.991 108.068 161.704 108.154 161.41 108.161C161.122 108.162 160.843 108.062 160.62 107.88C160.398 107.697 160.246 107.443 160.19 107.161C160.116 107.427 160.016 107.685 159.89 107.931L159.34 108.931C159.081 109.486 158.664 109.953 158.14 110.271L154.85 112.171C154.566 112.341 154.241 112.434 153.91 112.441C153.546 112.445 153.192 112.321 152.91 112.091L152.38 111.691C152.158 111.514 151.98 111.288 151.86 111.031C151.852 111.64 151.701 112.24 151.42 112.781L150.87 113.781C150.605 114.327 150.188 114.785 149.67 115.101L146.38 117.001C146.077 117.181 145.732 117.277 145.38 117.281C145.04 117.28 144.71 117.168 144.44 116.961L143.88 116.531C143.636 116.329 143.444 116.073 143.319 115.782C143.194 115.492 143.139 115.176 143.16 114.861V112.041C142.965 112.348 142.697 112.602 142.38 112.781L138.56 114.991C138.48 115.041 138.36 115.111 138.36 115.471V120.141C138.38 120.568 138.282 120.992 138.077 121.368C137.873 121.743 137.569 122.056 137.2 122.271L137.01 122.381C136.791 122.549 136.533 122.659 136.26 122.701L136.29 122.691ZM146.92 102.501C146.84 102.501 146.72 102.621 146.72 102.981V112.641L148.25 111.751C148.33 111.751 148.46 111.631 148.46 111.271V101.611L146.92 102.501ZM143.26 104.361C143.068 104.673 142.799 104.931 142.48 105.111L138.66 107.311C138.58 107.361 138.46 107.431 138.46 107.791V110.911L141.53 109.141C141.775 108.983 142.059 108.896 142.35 108.891C142.522 108.889 142.693 108.925 142.85 108.996C143.007 109.067 143.147 109.171 143.26 109.301V104.361ZM172.42 87.8208C172.33 87.8208 172.22 87.9408 172.22 88.3008V97.9108L173.75 97.0308C173.83 97.0308 173.96 96.9108 173.96 96.5508V87.0008L172.42 87.8208ZM186.71 95.6008C186.409 95.5988 186.117 95.5007 185.876 95.3208C185.635 95.1409 185.457 94.8886 185.37 94.6008L184.43 92.1508C184.289 91.7808 184.194 91.3944 184.15 91.0008L183.57 86.4408C183.57 86.0708 183.57 85.8608 183.57 85.7708C183.57 85.6808 183.57 85.4308 183.57 85.1108L184.15 79.8408C184.201 79.3854 184.285 78.9343 184.4 78.4908L185.35 74.9308C185.434 74.5821 185.586 74.2534 185.797 73.9634C186.008 73.6734 186.274 73.4279 186.58 73.2408L186.92 73.0508C187.169 72.8936 187.456 72.8072 187.75 72.8008H187.96H188.13C188.384 72.8938 188.6 73.0672 188.747 73.2947C188.893 73.5221 188.961 73.7912 188.94 74.0608C188.941 74.3076 188.907 74.5532 188.84 74.7908L187.84 78.1708C187.738 78.5205 187.668 78.8786 187.63 79.2408L187.12 84.2408C187.12 84.4708 187.12 84.6408 187.12 84.7308C187.12 84.8208 187.12 84.9808 187.12 85.2008L187.63 89.5708C187.651 89.8081 187.708 90.0409 187.8 90.2608L188.8 92.5208C188.893 92.7633 188.941 93.021 188.94 93.2808C188.933 93.6311 188.84 93.9744 188.67 94.2808C188.487 94.6226 188.209 94.904 187.87 95.0908L187.53 95.2908C187.283 95.4432 187 95.5261 186.71 95.5308V95.6008ZM181.38 93.1808C180.79 93.1808 180.11 92.7808 180.11 91.6408V90.6408C180.084 90.2084 180.178 89.7772 180.38 89.3944C180.583 89.0116 180.888 88.6921 181.26 88.4708L181.62 88.2608C181.868 88.111 182.15 88.0283 182.44 88.0208C183.06 88.0208 183.73 88.4408 183.73 89.6408V90.6408C183.745 91.0603 183.645 91.476 183.44 91.8426C183.236 92.2093 182.935 92.513 182.57 92.7208L182.21 92.9208C181.955 93.0903 181.656 93.184 181.35 93.1908L181.38 93.1808ZM181.38 84.8508C180.79 84.8508 180.11 84.4408 180.11 83.3008V82.3008C180.085 81.8685 180.179 81.4378 180.382 81.0552C180.585 80.6726 180.888 80.3529 181.26 80.1308L181.62 79.9208C181.867 79.7697 182.15 79.6869 182.44 79.6808C183.06 79.6808 183.73 80.1108 183.73 81.3108V82.3108C183.746 82.7305 183.646 83.1466 183.442 83.5134C183.237 83.8803 182.935 84.1838 182.57 84.3908L182.21 84.6008C181.954 84.7668 181.655 84.8569 181.35 84.8608L181.38 84.8508Z" fill="#F97316"/>
<path opacity="0.3" d="M109.74 137.54C109.55 137.54 108.93 137.46 108.93 136.43V121.92C108.905 121.573 108.978 121.226 109.141 120.919C109.304 120.611 109.549 120.355 109.85 120.18L110.19 119.98C110.371 119.869 110.578 119.807 110.79 119.8C110.988 119.807 111.179 119.877 111.335 119.999C111.492 120.121 111.605 120.29 111.66 120.48L114.27 127C114.275 126.94 114.275 126.88 114.27 126.82V118.82C114.245 118.473 114.318 118.126 114.481 117.819C114.644 117.511 114.889 117.255 115.19 117.08L115.38 116.97C115.554 116.861 115.754 116.799 115.96 116.79C116.15 116.79 116.77 116.88 116.77 117.92V132.44C116.79 132.783 116.715 133.124 116.552 133.426C116.39 133.728 116.147 133.978 115.85 134.15L115.66 134.26C115.479 134.372 115.272 134.434 115.06 134.44C114.866 134.438 114.678 134.373 114.523 134.256C114.369 134.139 114.255 133.976 114.2 133.79L111.44 127C111.44 127.06 111.44 127.13 111.44 127.19V135.57C111.461 135.914 111.386 136.257 111.224 136.561C111.061 136.864 110.818 137.117 110.52 137.29L110.34 137.4C110.155 137.497 109.949 137.545 109.74 137.54ZM119.27 131.99C119.034 131.996 118.804 131.918 118.62 131.77L118.06 131.35C117.875 131.191 117.73 130.99 117.638 130.764C117.546 130.538 117.509 130.293 117.53 130.05V118.34C117.535 117.8 117.668 117.268 117.92 116.79L118.47 115.74C118.692 115.278 119.038 114.887 119.47 114.61L122.77 112.71C122.981 112.58 123.222 112.507 123.47 112.5C123.72 112.496 123.963 112.585 124.15 112.75L124.68 113.15C124.865 113.307 125.009 113.506 125.102 113.731C125.194 113.955 125.231 114.199 125.21 114.44V126.16C125.203 126.7 125.07 127.231 124.82 127.71L124.27 128.71C124.051 129.172 123.704 129.56 123.27 129.83L119.98 131.73C119.766 131.862 119.521 131.935 119.27 131.94V131.99ZM120.48 117.21C120.327 117.299 120.202 117.43 120.122 117.588C120.042 117.746 120.01 117.924 120.03 118.1C120.03 118.1 120.03 128.56 120.03 128.58L122.27 127.29C122.423 127.202 122.548 127.07 122.628 126.912C122.708 126.754 122.74 126.576 122.72 126.4C122.72 126.4 122.72 115.94 122.72 115.91L120.48 117.21ZM128.38 126.78C128.13 126.78 127.56 126.67 127.56 125.65V113.12L126.35 113.82C126.172 113.93 125.969 113.992 125.76 114C125.57 114 124.96 113.92 124.96 112.91V112.66C124.937 112.315 125.011 111.97 125.174 111.664C125.336 111.359 125.581 111.104 125.88 110.93L131.26 107.82C131.434 107.711 131.634 107.649 131.84 107.64C132.03 107.64 132.65 107.72 132.65 108.77V109C132.67 109.339 132.595 109.676 132.434 109.974C132.274 110.273 132.033 110.52 131.74 110.69L130.51 111.4C130.356 111.492 130.232 111.628 130.154 111.789C130.076 111.951 130.047 112.132 130.07 112.31V124.73C130.095 125.077 130.022 125.424 129.859 125.732C129.696 126.039 129.451 126.295 129.15 126.47L128.96 126.58C128.786 126.69 128.586 126.752 128.38 126.76V126.78ZM136.26 122.23C136.07 122.23 135.45 122.15 135.45 121.12V106.63C135.429 106.286 135.504 105.944 135.666 105.64C135.829 105.336 136.072 105.084 136.37 104.91L141.73 101.82C141.906 101.707 142.111 101.645 142.32 101.64C142.51 101.64 143.13 101.72 143.13 102.74V103C143.152 103.344 143.078 103.687 142.915 103.991C142.753 104.295 142.508 104.548 142.21 104.72L138.4 106.92C138.245 107.007 138.119 107.138 138.039 107.296C137.958 107.455 137.928 107.634 137.95 107.81V111.75L141.73 109.57C141.908 109.461 142.111 109.4 142.32 109.39C142.51 109.39 143.13 109.47 143.13 110.5V110.75C143.153 111.093 143.078 111.435 142.916 111.737C142.753 112.04 142.508 112.29 142.21 112.46L138.4 114.66C138.244 114.748 138.118 114.881 138.037 115.041C137.957 115.202 137.927 115.382 137.95 115.56V120.23C137.972 120.574 137.898 120.917 137.735 121.221C137.573 121.525 137.328 121.778 137.03 121.95L136.85 122.05C136.673 122.162 136.469 122.225 136.26 122.23ZM145.45 116.88C145.215 116.88 144.987 116.802 144.8 116.66L144.24 116.24C144.055 116.081 143.91 115.88 143.818 115.654C143.726 115.428 143.689 115.183 143.71 114.94V103.22C143.716 102.683 143.85 102.155 144.1 101.68L144.65 100.63C144.869 100.166 145.216 99.7742 145.65 99.5002L148.95 97.5902C149.161 97.4599 149.402 97.3875 149.65 97.3802C149.899 97.3828 150.139 97.4711 150.33 97.6302L150.86 98.0302C151.045 98.1894 151.19 98.3903 151.282 98.6163C151.374 98.8424 151.411 99.0871 151.39 99.3302V111.05C151.384 111.587 151.25 112.115 151 112.59L150.45 113.59C150.228 114.052 149.882 114.444 149.45 114.72L146.16 116.62C145.946 116.751 145.701 116.823 145.45 116.83V116.88ZM146.65 102.1C146.497 102.189 146.374 102.321 146.296 102.479C146.218 102.637 146.188 102.815 146.21 102.99V113.47L148.46 112.17C148.614 112.082 148.738 111.95 148.818 111.792C148.898 111.634 148.93 111.456 148.91 111.28C148.91 111.28 148.91 100.82 148.91 100.8L146.65 102.1ZM153.91 112C153.661 111.998 153.421 111.909 153.23 111.75L152.69 111.34C152.506 111.181 152.361 110.98 152.269 110.754C152.177 110.528 152.14 110.283 152.16 110.04V96.9402C152.138 96.5963 152.212 96.253 152.375 95.9491C152.537 95.6452 152.782 95.3928 153.08 95.2202L153.27 95.1102C153.444 95.0007 153.644 94.9386 153.85 94.9302C154.04 94.9302 154.66 95.0102 154.66 96.0402V108.59L156.91 107.29C157.064 107.198 157.188 107.063 157.266 106.901C157.344 106.739 157.374 106.558 157.35 106.38V93.9402C157.329 93.5965 157.404 93.2537 157.566 92.95C157.729 92.6463 157.972 92.3937 158.27 92.2202L158.46 92.1102C158.638 92.0003 158.841 91.9383 159.05 91.9302C159.24 91.9302 159.86 92.0102 159.86 93.0402V106.15C159.85 106.688 159.713 107.216 159.46 107.69L158.92 108.69C158.704 109.162 158.357 109.561 157.92 109.84L154.63 111.74C154.42 111.872 154.178 111.944 153.93 111.95L153.91 112ZM161.41 107.7C161.22 107.7 160.61 107.62 160.61 106.59V92.0802C160.587 91.7348 160.661 91.3899 160.824 91.0843C160.986 90.7786 161.231 90.5244 161.53 90.3502L161.87 90.1502C162.047 90.039 162.251 89.9769 162.46 89.9702C162.659 89.9703 162.852 90.036 163.009 90.1572C163.166 90.2784 163.279 90.4482 163.33 90.6402L166 97.1702C166 97.1102 166 97.0502 166 96.9902V89.0002C165.977 88.6548 166.051 88.3099 166.214 88.0043C166.376 87.6986 166.621 87.4444 166.92 87.2702L167.1 87.1602C167.274 87.0507 167.474 86.9886 167.68 86.9802C167.87 86.9802 168.5 87.0602 168.5 88.1102V102.62C168.523 102.963 168.448 103.305 168.286 103.607C168.123 103.91 167.878 104.16 167.58 104.33L167.39 104.44C167.209 104.56 166.997 104.626 166.78 104.63C166.588 104.626 166.402 104.56 166.249 104.443C166.097 104.327 165.985 104.164 165.93 103.98L163.16 97.1302C163.155 97.1968 163.155 97.2637 163.16 97.3302V105.71C163.183 106.053 163.108 106.395 162.946 106.697C162.783 107 162.538 107.25 162.24 107.42L162.05 107.53C161.857 107.647 161.635 107.706 161.41 107.7ZM170.02 102.7C169.83 102.7 169.21 102.62 169.21 101.59V87.1402C169.189 86.7965 169.264 86.4537 169.426 86.15C169.589 85.8463 169.832 85.5936 170.13 85.4202L174.47 82.9202C174.68 82.7886 174.922 82.7161 175.17 82.7102C175.42 82.7056 175.663 82.7948 175.85 82.9602L176.37 83.3602C176.559 83.5147 176.707 83.713 176.801 83.938C176.895 84.1629 176.932 84.4074 176.91 84.6502V96.3202C176.902 96.8613 176.764 97.3926 176.51 97.8702L175.96 98.8702C175.739 99.3331 175.393 99.7246 174.96 100L170.61 102.5C170.438 102.617 170.237 102.683 170.03 102.69L170.02 102.7ZM172.15 87.3802C171.998 87.47 171.876 87.602 171.798 87.7599C171.72 87.9179 171.689 88.0952 171.71 88.2702V98.7502L173.96 97.4502C174.113 97.3614 174.236 97.2296 174.314 97.0714C174.392 96.9131 174.422 96.7354 174.4 96.5602V86.1202L172.15 87.3802ZM186.68 95.0902C186.472 95.0884 186.271 95.0163 186.109 94.8855C185.948 94.7548 185.835 94.5732 185.79 94.3702L184.84 92.0002C184.723 91.6763 184.639 91.3412 184.59 91.0002L184 86.3502C184 86.0202 184 85.8302 184 85.7402C184 85.6502 184 85.4202 184 85.1202L184.58 79.8602C184.628 79.4314 184.708 79.0069 184.82 78.5902L185.77 75.0302C185.835 74.7419 185.956 74.4694 186.128 74.2289C186.3 73.9885 186.518 73.7849 186.77 73.6302L187.11 73.4302C187.287 73.3176 187.49 73.2522 187.7 73.2402H187.79L187.96 73.2902C188.113 73.356 188.24 73.4695 188.323 73.6137C188.406 73.7579 188.44 73.9251 188.42 74.0902C188.419 74.2935 188.388 74.4956 188.33 74.6902L187.33 78.0702C187.22 78.4457 187.147 78.8308 187.11 79.2202L186.59 84.2202C186.59 84.4802 186.59 84.6602 186.59 84.7602C186.58 84.9301 186.58 85.1004 186.59 85.2702L187.1 89.6602C187.121 89.9427 187.189 90.2197 187.3 90.4802L188.3 92.7402C188.374 92.9211 188.411 93.1148 188.41 93.3102C188.404 93.5929 188.332 93.8703 188.2 94.1202C188.049 94.3816 187.831 94.5988 187.57 94.7502L187.23 94.9502C187.054 95.0543 186.854 95.1127 186.65 95.1202L186.68 95.0902ZM181.35 92.6802C181.16 92.6802 180.55 92.6002 180.55 91.6102V90.6102C180.524 90.2602 180.596 89.9099 180.759 89.5988C180.921 89.2878 181.168 89.0285 181.47 88.8502L181.83 88.6402C182.004 88.5307 182.204 88.4686 182.41 88.4602C182.65 88.4602 183.22 88.5802 183.22 89.6102V90.6102C183.238 90.9454 183.161 91.2787 182.998 91.5722C182.835 91.8657 182.594 92.1076 182.3 92.2702L181.94 92.4802C181.765 92.5973 181.561 92.6631 181.35 92.6702V92.6802ZM181.35 84.3402C181.16 84.3402 180.55 84.2702 180.55 83.2702V82.2702C180.526 81.9206 180.599 81.5711 180.762 81.2605C180.924 80.9499 181.169 80.6902 181.47 80.5102L181.83 80.3102C182.004 80.2007 182.204 80.1386 182.41 80.1302C182.65 80.1302 183.22 80.2402 183.22 81.2802V82.2802C183.248 82.625 183.176 82.9706 183.013 83.2757C182.85 83.5807 182.602 83.8323 182.3 84.0002L181.94 84.2102C181.762 84.3202 181.559 84.3822 181.35 84.3902V84.3402Z" fill="#F97316"/>
<path d="M110.28 136.84L110.09 136.94C109.63 137.21 109.41 137.03 109.41 136.43V121.92C109.386 121.657 109.437 121.392 109.558 121.157C109.678 120.922 109.863 120.725 110.09 120.59L110.43 120.4C110.8 120.18 111.06 120.26 111.21 120.65L113.95 127.49C113.993 127.601 114.07 127.696 114.17 127.76C114.205 127.785 114.247 127.798 114.29 127.798C114.333 127.798 114.375 127.785 114.41 127.76C114.531 127.685 114.62 127.567 114.66 127.43C114.73 127.235 114.764 127.028 114.76 126.82V118.82C114.737 118.557 114.789 118.293 114.909 118.058C115.03 117.823 115.213 117.626 115.44 117.49L115.62 117.39C116.08 117.12 116.31 117.3 116.31 117.92V132.44C116.329 132.7 116.275 132.96 116.153 133.19C116.031 133.42 115.846 133.611 115.62 133.74L115.44 133.85C115.06 134.06 114.8 133.99 114.65 133.62L111.76 126.45C111.64 126.15 111.5 126.05 111.31 126.15C111.19 126.24 111.102 126.366 111.06 126.51C110.988 126.712 110.954 126.926 110.96 127.14V135.52C110.981 135.782 110.928 136.044 110.808 136.277C110.688 136.51 110.505 136.705 110.28 136.84Z" fill="#F97316"/>
<path d="M124.41 127.491L123.87 128.491C123.687 128.878 123.395 129.204 123.03 129.431L119.74 131.331C119.619 131.418 119.474 131.464 119.325 131.464C119.176 131.464 119.031 131.418 118.91 131.331L118.35 130.901C118.225 130.785 118.129 130.641 118.07 130.481C118.011 130.321 117.99 130.15 118.01 129.981V118.341C118.015 117.873 118.132 117.414 118.35 117.001L118.89 116.001C119.077 115.618 119.368 115.295 119.73 115.071L123.03 113.161C123.152 113.07 123.299 113.021 123.45 113.021C123.602 113.021 123.749 113.07 123.87 113.161L124.41 113.581C124.535 113.694 124.632 113.836 124.691 113.994C124.75 114.153 124.77 114.323 124.75 114.491V126.211C124.738 126.658 124.621 127.096 124.41 127.491ZM123.2 126.401V116.001C123.2 115.391 122.98 115.221 122.52 115.481L120.24 116.801C120.015 116.93 119.831 117.121 119.71 117.351C119.59 117.581 119.538 117.841 119.56 118.101V128.501C119.56 129.111 119.78 129.281 120.24 129.021L122.52 127.701C122.745 127.571 122.929 127.379 123.049 127.149C123.169 126.919 123.222 126.659 123.2 126.401Z" fill="#F97316"/>
<path d="M126.11 111.34L131.5 108.23C131.95 107.97 132.18 108.15 132.18 108.77V109C132.198 109.256 132.143 109.511 132.023 109.738C131.903 109.964 131.722 110.152 131.5 110.28L130.27 110.99C130.044 111.125 129.861 111.319 129.741 111.553C129.62 111.786 129.568 112.049 129.59 112.31V124.73C129.612 124.993 129.559 125.257 129.439 125.492C129.319 125.727 129.136 125.924 128.91 126.06L128.72 126.17C128.27 126.43 128.04 126.25 128.04 125.63V113.23C128.04 112.6 127.81 112.43 127.36 112.69L126.11 113.41C125.66 113.67 125.43 113.5 125.43 112.91V112.66C125.408 112.399 125.46 112.136 125.581 111.903C125.701 111.669 125.884 111.475 126.11 111.34Z" fill="#F97316"/>
<path d="M136.61 105.33L141.97 102.23C142.43 101.97 142.65 102.14 142.65 102.74V103C142.671 103.26 142.618 103.521 142.498 103.753C142.378 103.985 142.195 104.178 141.97 104.31L138.16 106.51C137.934 106.639 137.75 106.83 137.63 107.061C137.509 107.291 137.457 107.551 137.48 107.81V111.67C137.48 112.28 137.7 112.45 138.16 112.19L142 110C142.46 109.74 142.68 109.91 142.68 110.52V110.77C142.688 111.018 142.629 111.262 142.51 111.479C142.39 111.696 142.214 111.876 142 112L138.19 114.2C137.966 114.331 137.783 114.522 137.663 114.752C137.543 114.982 137.49 115.242 137.51 115.5V120.18C137.531 120.44 137.477 120.7 137.354 120.931C137.232 121.161 137.047 121.352 136.82 121.48L136.64 121.59C136.18 121.86 135.96 121.68 135.96 121.08V106.63C135.934 106.374 135.982 106.116 136.097 105.886C136.212 105.656 136.39 105.463 136.61 105.33Z" fill="#F97316"/>
<path d="M150.59 112.38L150.05 113.38C149.864 113.766 149.572 114.091 149.21 114.32L145.92 116.21C145.799 116.297 145.654 116.344 145.505 116.344C145.356 116.344 145.211 116.297 145.09 116.21L144.53 115.79C144.405 115.674 144.309 115.531 144.25 115.371C144.19 115.211 144.17 115.039 144.19 114.87V103.22C144.195 102.756 144.312 102.3 144.53 101.89L145.07 100.89C145.254 100.502 145.545 100.176 145.91 99.95L149.21 98.04C149.331 97.9476 149.478 97.8975 149.63 97.8975C149.782 97.8975 149.93 97.9476 150.05 98.04L150.59 98.45C150.715 98.5656 150.811 98.7093 150.871 98.8692C150.93 99.0291 150.95 99.2007 150.93 99.37V111.09C150.919 111.541 150.802 111.982 150.59 112.38ZM149.38 111.28V100.88C149.38 100.28 149.15 100.1 148.7 100.37L146.42 101.68C146.195 101.812 146.012 102.006 145.892 102.237C145.772 102.469 145.719 102.73 145.74 102.99V113.39C145.74 113.99 145.96 114.16 146.42 113.9L148.7 112.58C148.924 112.449 149.107 112.258 149.227 112.028C149.347 111.798 149.4 111.539 149.38 111.28Z" fill="#F97316"/>
<path d="M158.51 92.6305L158.7 92.5305C159.15 92.2605 159.38 92.4405 159.38 93.0405V106.151C159.375 106.615 159.259 107.071 159.04 107.481L158.49 108.481C158.323 108.891 158.033 109.24 157.66 109.481L154.37 111.381C154.252 111.474 154.106 111.525 153.955 111.525C153.804 111.525 153.658 111.474 153.54 111.381L153 111.001C152.874 110.885 152.776 110.742 152.715 110.582C152.654 110.422 152.632 110.251 152.65 110.081V96.9405C152.631 96.6795 152.686 96.4184 152.808 96.1869C152.93 95.9553 153.114 95.7626 153.34 95.6305L153.52 95.5305C153.98 95.2605 154.2 95.4405 154.2 96.0405V108.491C154.2 109.111 154.43 109.291 154.89 109.021L157.17 107.711C157.395 107.573 157.578 107.376 157.698 107.141C157.818 106.907 157.87 106.643 157.85 106.381V93.9405C157.829 93.6826 157.88 93.424 157.996 93.1929C158.113 92.9619 158.29 92.7673 158.51 92.6305Z" fill="#F97316"/>
<path d="M162 107L161.81 107.11C161.36 107.37 161.13 107.2 161.13 106.59V92.0803C161.109 91.8187 161.161 91.5561 161.281 91.3227C161.401 91.0893 161.585 90.8944 161.81 90.7603L162.15 90.5603C162.53 90.3403 162.79 90.4303 162.94 90.8103L165.68 97.6503C165.717 97.7618 165.791 97.8572 165.89 97.9203C165.928 97.9444 165.971 97.9572 166.015 97.9572C166.06 97.9572 166.103 97.9444 166.14 97.9203C166.263 97.8463 166.352 97.7282 166.39 97.5903C166.456 97.3972 166.486 97.1941 166.48 96.9903V89.0003C166.458 88.7387 166.511 88.4761 166.631 88.2427C166.751 88.0093 166.935 87.8144 167.16 87.6803L167.35 87.5703C167.8 87.3103 168.03 87.4903 168.03 88.1103V102.62C168.051 102.879 167.998 103.138 167.877 103.368C167.757 103.598 167.574 103.789 167.35 103.92L167.16 104.03C166.79 104.25 166.53 104.17 166.38 103.8L163.48 96.6403C163.37 96.3303 163.22 96.2303 163.04 96.3403C162.917 96.4247 162.826 96.5479 162.78 96.6903C162.712 96.8968 162.679 97.113 162.68 97.3303V105.71C162.7 105.968 162.647 106.225 162.526 106.453C162.406 106.682 162.224 106.871 162 107Z" fill="#F97316"/>
<path d="M176.09 97.6602L175.54 98.6602C175.357 99.0452 175.07 99.371 174.71 99.6002L170.37 102.1C169.91 102.36 169.68 102.19 169.68 101.59V87.1402C169.659 86.8803 169.713 86.6199 169.836 86.3896C169.958 86.1594 170.143 85.9687 170.37 85.8402L174.71 83.3302C174.83 83.2401 174.975 83.1914 175.125 83.1914C175.275 83.1914 175.42 83.2401 175.54 83.3302L176.09 83.7502C176.215 83.8638 176.311 84.0056 176.37 84.1639C176.43 84.3222 176.45 84.4924 176.43 84.6602V96.3202C176.425 96.7876 176.309 97.247 176.09 97.6602ZM171.92 99.1802L174.2 97.8602C174.424 97.7293 174.607 97.538 174.727 97.308C174.847 97.0781 174.9 96.8189 174.88 96.5602V86.2102C174.88 85.6002 174.65 85.4302 174.2 85.6902L171.92 87.0002C171.693 87.1287 171.508 87.3194 171.386 87.5496C171.263 87.7799 171.209 88.0403 171.23 88.3002V98.6702C171.23 99.2702 171.46 99.4402 171.92 99.1802Z" fill="#F97316"/>
<path d="M182.07 83.5802L181.71 83.7802C181.25 84.0502 181.03 83.8902 181.03 83.3102V82.3102C181.006 82.0455 181.057 81.7792 181.177 81.5421C181.297 81.305 181.482 81.1067 181.71 80.9702L182.07 80.7602C182.52 80.5002 182.75 80.6802 182.75 81.3202V82.3202C182.767 82.5729 182.711 82.825 182.591 83.0478C182.471 83.2706 182.29 83.4551 182.07 83.5802ZM182.07 91.9102L181.71 92.1202C181.25 92.3802 181.03 92.2202 181.03 91.6502V90.6502C181.004 90.3839 181.054 90.1155 181.174 89.8764C181.295 89.6373 181.481 89.4375 181.71 89.3002L182.07 89.0902C182.52 88.8302 182.75 89.0202 182.75 89.6502V90.6502C182.768 90.9031 182.713 91.1556 182.593 91.3787C182.472 91.6017 182.291 91.786 182.07 91.9102Z" fill="#F97316"/>
<path d="M188 93.3209C187.999 93.5237 187.947 93.723 187.85 93.9009C187.745 94.0903 187.589 94.2462 187.4 94.3509L187.06 94.5509C186.687 94.7642 186.427 94.6642 186.28 94.2509L185.28 91.7809C185.162 91.4791 185.085 91.163 185.05 90.8409L184.48 86.2909C184.48 86.0009 184.48 85.8209 184.48 85.7409C184.48 85.6609 184.48 85.4409 184.48 85.1609L185.05 79.9209C185.093 79.5152 185.17 79.1138 185.28 78.7209L186.28 75.1509C186.361 74.6883 186.619 74.2757 187 74.0009L187.34 73.8009C187.47 73.7075 187.631 73.6681 187.79 73.6909C187.89 73.7309 187.94 73.8509 187.94 74.0509C187.94 74.2102 187.917 74.3687 187.87 74.5209L186.87 77.9009C186.758 78.3007 186.678 78.7086 186.63 79.1209L186.12 84.1209C186.12 84.4109 186.12 84.6009 186.12 84.7109C186.12 84.8209 186.12 85.0009 186.12 85.2609L186.63 89.6609C186.667 90.0032 186.747 90.3393 186.87 90.6609L187.87 92.9109C187.944 93.0357 187.989 93.176 188 93.3209Z" fill="#F97316"/>
<path opacity="0.6" d="M142 102.23L136.64 105.33C136.414 105.459 136.23 105.65 136.11 105.881C135.989 106.111 135.937 106.371 135.96 106.63V121.12C135.96 121.72 136.18 121.9 136.64 121.63L136.82 121.52C137.047 121.392 137.232 121.201 137.354 120.971C137.477 120.741 137.531 120.48 137.51 120.22V115.54C137.49 115.282 137.543 115.023 137.663 114.793C137.783 114.563 137.966 114.371 138.19 114.24L142 112C142.225 111.871 142.408 111.679 142.529 111.449C142.649 111.219 142.702 110.959 142.68 110.7V110.45C142.68 109.84 142.46 109.67 142 109.93L138.19 112.14C137.73 112.4 137.51 112.23 137.51 111.62V107.8C137.487 107.541 137.539 107.281 137.66 107.051C137.78 106.82 137.964 106.629 138.19 106.5L142 104.3C142.225 104.168 142.408 103.975 142.528 103.743C142.648 103.511 142.701 103.251 142.68 102.99V102.74C142.65 102.14 142.43 102 142 102.23ZM115.62 117.4L115.44 117.5C115.212 117.636 115.027 117.832 114.905 118.067C114.783 118.302 114.73 118.566 114.75 118.83V126.83C114.756 127.038 114.726 127.244 114.66 127.44C114.62 127.577 114.531 127.695 114.41 127.77C114.375 127.795 114.333 127.808 114.29 127.808C114.247 127.808 114.205 127.795 114.17 127.77C114.07 127.706 113.993 127.612 113.95 127.5L111.21 120.66C111.06 120.27 110.8 120.19 110.43 120.41L110.09 120.6C109.863 120.735 109.678 120.932 109.558 121.167C109.437 121.403 109.386 121.667 109.41 121.93V136.44C109.41 137.04 109.63 137.22 110.09 136.95L110.28 136.85C110.503 136.716 110.685 136.523 110.805 136.292C110.925 136.06 110.979 135.8 110.96 135.54V127.16C110.954 126.946 110.988 126.732 111.06 126.53C111.102 126.386 111.19 126.26 111.31 126.17C111.5 126.07 111.64 126.17 111.76 126.47L114.65 133.64C114.8 134.01 115.06 134.08 115.44 133.87L115.62 133.76C115.846 133.631 116.031 133.44 116.153 133.21C116.275 132.98 116.329 132.72 116.31 132.46V117.93C116.31 117.31 116.08 117.13 115.62 117.4ZM150.05 98.0004C149.929 97.908 149.782 97.8579 149.63 97.8579C149.478 97.8579 149.33 97.908 149.21 98.0004L145.91 99.9104C145.545 100.136 145.254 100.463 145.07 100.85L144.53 101.85C144.311 102.26 144.195 102.716 144.19 103.18V114.9C144.17 115.07 144.19 115.241 144.25 115.401C144.309 115.561 144.405 115.705 144.53 115.82L145.09 116.24C145.211 116.328 145.356 116.374 145.505 116.374C145.654 116.374 145.799 116.328 145.92 116.24L149.21 114.35C149.572 114.122 149.863 113.796 150.05 113.41L150.59 112.41C150.808 112.001 150.925 111.545 150.93 111.08V99.3304C150.95 99.1611 150.93 98.9895 150.87 98.8296C150.811 98.6697 150.715 98.5261 150.59 98.4104L150.05 98.0004ZM149.38 111.28C149.4 111.539 149.347 111.798 149.227 112.028C149.107 112.258 148.924 112.45 148.7 112.58L146.42 113.9C145.96 114.16 145.74 113.99 145.74 113.39V103C145.719 102.74 145.771 102.479 145.892 102.248C146.012 102.016 146.195 101.823 146.42 101.69L148.7 100.38C149.15 100.11 149.38 100.29 149.38 100.89V111.28ZM123.87 113.11C123.749 113.02 123.601 112.97 123.45 112.97C123.299 112.97 123.151 113.02 123.03 113.11L119.73 115.02C119.368 115.245 119.077 115.567 118.89 115.95L118.35 116.95C118.131 117.364 118.015 117.823 118.01 118.29V130C117.99 130.17 118.01 130.341 118.07 130.501C118.129 130.661 118.225 130.805 118.35 130.92L118.91 131.35C119.031 131.438 119.176 131.484 119.325 131.484C119.474 131.484 119.619 131.438 119.74 131.35L123.03 129.45C123.395 129.224 123.686 128.898 123.87 128.51L124.41 127.51C124.628 127.101 124.745 126.645 124.75 126.18V114.44C124.77 114.273 124.749 114.103 124.69 113.944C124.631 113.786 124.535 113.644 124.41 113.53L123.87 113.11ZM123.2 126.4C123.222 126.659 123.169 126.919 123.049 127.149C122.928 127.379 122.745 127.571 122.52 127.7L120.24 129C119.78 129.26 119.56 129.09 119.56 128.48V118.1C119.537 117.841 119.589 117.581 119.71 117.351C119.83 117.12 120.014 116.929 120.24 116.8L122.52 115.48C122.98 115.22 123.2 115.39 123.2 116V126.4ZM131.5 108.23L126.11 111.34C125.884 111.475 125.701 111.669 125.581 111.903C125.46 112.136 125.408 112.399 125.43 112.66V112.91C125.43 113.5 125.66 113.67 126.11 113.41L127.36 112.69C127.81 112.43 128.04 112.6 128.04 113.23V125.65C128.04 126.27 128.27 126.45 128.72 126.19L128.91 126.08C129.136 125.944 129.319 125.747 129.439 125.512C129.559 125.277 129.611 125.013 129.59 124.75V112.33C129.568 112.069 129.62 111.806 129.741 111.573C129.861 111.339 130.044 111.145 130.27 111.01L131.5 110.3C131.722 110.172 131.903 109.984 132.023 109.758C132.143 109.531 132.198 109.276 132.18 109.02V108.77C132.18 108.15 132 108 131.5 108.23ZM158.7 92.5304L158.51 92.6304C158.287 92.7647 158.105 92.9581 157.985 93.1894C157.865 93.4206 157.811 93.6806 157.83 93.9404V106.38C157.85 106.643 157.797 106.907 157.677 107.141C157.557 107.376 157.375 107.573 157.15 107.71L154.87 109C154.41 109.27 154.18 109.09 154.18 108.47V96.0004C154.18 95.4004 153.96 95.2204 153.5 95.4904L153.32 95.5904C153.094 95.7225 152.91 95.9152 152.788 96.1468C152.666 96.3783 152.611 96.6394 152.63 96.9004V110C152.612 110.171 152.634 110.342 152.695 110.502C152.756 110.662 152.854 110.805 152.98 110.92L153.54 111.34C153.658 111.434 153.804 111.484 153.955 111.484C154.106 111.484 154.252 111.434 154.37 111.34L157.66 109.44C158.033 109.2 158.323 108.851 158.49 108.44L159.04 107.44C159.258 107.031 159.375 106.575 159.38 106.11V93.0004C159.38 92.4404 159.15 92.2604 158.7 92.5304ZM182.07 89.0704L181.71 89.2804C181.48 89.4177 181.294 89.6176 181.174 89.8566C181.053 90.0957 181.003 90.3641 181.03 90.6304V91.6304C181.03 92.2004 181.25 92.3604 181.71 92.1004L182.07 91.8904C182.289 91.767 182.469 91.5842 182.59 91.3632C182.71 91.1421 182.765 90.8916 182.75 90.6404V89.6404C182.75 89.0004 182.52 88.8104 182.07 89.0704ZM186.92 90.6804C186.797 90.3588 186.717 90.0227 186.68 89.6804L186.17 85.2804C186.17 85.0204 186.17 84.8404 186.17 84.7304C186.17 84.6204 186.17 84.4304 186.17 84.1404L186.68 79.1404C186.728 78.7282 186.808 78.3203 186.92 77.9204L187.92 74.5404C187.967 74.3882 187.99 74.2297 187.99 74.0704C187.99 73.8704 187.94 73.7504 187.84 73.7104C187.681 73.6876 187.52 73.727 187.39 73.8204L187 74.0004C186.605 74.2546 186.325 74.6529 186.22 75.1104L185.22 78.6804C185.115 79.0745 185.038 79.4755 184.99 79.8804L184.42 85.1204C184.42 85.4004 184.42 85.6004 184.42 85.7004C184.42 85.8004 184.42 85.9604 184.42 86.2504L184.99 90.8004C185.03 91.1217 185.107 91.4372 185.22 91.7404L186.22 94.2104C186.367 94.6171 186.627 94.7171 187 94.5104L187.34 94.3104C187.529 94.2058 187.685 94.0498 187.79 93.8604C187.887 93.6826 187.939 93.4832 187.94 93.2804C187.945 93.1469 187.921 93.014 187.87 92.8904L186.92 90.6804ZM182.07 80.7404L181.71 80.9504C181.482 81.087 181.297 81.2852 181.177 81.5223C181.056 81.7594 181.005 82.0257 181.03 82.2904V83.2904C181.03 83.8704 181.25 84.0304 181.71 83.7604L182.07 83.5604C182.29 83.4353 182.471 83.2508 182.591 83.028C182.711 82.8052 182.766 82.5531 182.75 82.3004V81.3004C182.75 80.6604 182.52 80.4804 182.07 80.7404ZM167.3 87.5604L167.11 87.6704C166.884 87.8046 166.701 87.9995 166.581 88.2329C166.46 88.4663 166.408 88.7288 166.43 88.9904V96.9904C166.436 97.1942 166.405 97.3974 166.34 97.5904C166.298 97.7266 166.21 97.8436 166.09 97.9204C166.053 97.9445 166.009 97.9574 165.965 97.9574C165.921 97.9574 165.877 97.9445 165.84 97.9204C165.741 97.8573 165.667 97.7619 165.63 97.6504L162.89 90.8104C162.74 90.4304 162.48 90.3404 162.1 90.5604L161.76 90.7604C161.534 90.8946 161.351 91.0895 161.231 91.3229C161.11 91.5563 161.058 91.8188 161.08 92.0804V106.59C161.08 107.2 161.31 107.37 161.76 107.11L162 107C162.225 106.871 162.408 106.679 162.529 106.449C162.649 106.219 162.702 105.959 162.68 105.7V97.3204C162.678 97.1031 162.712 96.8869 162.78 96.6804C162.825 96.5381 162.917 96.4149 163.04 96.3304C163.22 96.2204 163.37 96.3304 163.48 96.6304L166.38 103.79C166.53 104.16 166.79 104.24 167.16 104.02L167.35 103.91C167.574 103.78 167.757 103.588 167.877 103.358C167.997 103.128 168.05 102.869 168.03 102.61V88.1004C168 87.4804 167.75 87.3004 167.3 87.5604ZM175.54 83.3204C175.42 83.2304 175.275 83.1817 175.125 83.1817C174.975 83.1817 174.83 83.2304 174.71 83.3204L170.37 85.8304C170.143 85.959 169.958 86.1496 169.836 86.3799C169.713 86.6102 169.659 86.8706 169.68 87.1304V101.62C169.68 102.22 169.91 102.39 170.37 102.13L174.71 99.6304C175.069 99.4013 175.357 99.0755 175.54 98.6904L176.09 97.6904C176.309 97.2773 176.425 96.8178 176.43 96.3504V84.6504C176.45 84.4826 176.429 84.3125 176.37 84.1542C176.311 83.9959 176.215 83.854 176.09 83.7404L175.54 83.3204ZM174.88 96.5604C174.9 96.8191 174.847 97.0783 174.727 97.3083C174.607 97.5382 174.424 97.7296 174.2 97.8604L171.92 99.1804C171.46 99.4404 171.23 99.2704 171.23 98.6704V88.3104C171.209 88.0506 171.263 87.7902 171.386 87.5599C171.508 87.3296 171.693 87.139 171.92 87.0104L174.2 85.6904C174.65 85.4304 174.88 85.6004 174.88 86.2104V96.5604Z" fill="white"/>
<path d="M336.76 378.62C332.772 376.8 328.552 375.538 324.22 374.87C321.569 374.43 318.862 374.454 316.22 374.94C314.338 375.324 312.516 375.956 310.8 376.82C304.92 379.74 304.07 382.99 303.88 385.74C303.69 388.49 305.21 392.17 310.07 395.57L393.48 454C408.662 445.911 422.772 435.954 435.48 424.36C399.24 407.52 340.1 380.05 336.76 378.62Z" fill="#263238"/>
<path d="M363.45 255.649C368.57 256.649 370.57 256.999 373.02 261.239C375.47 265.479 379.63 281.239 380.77 284.509C381.91 287.779 382.25 288.969 381.77 292.609C381.28 296.409 379.04 303.159 378.1 306.859C377.66 308.569 377.37 310.239 377.05 311.989C376.607 313.78 376.039 315.538 375.35 317.249C375.055 318.084 374.54 318.823 373.86 319.389C373.44 319.759 372.86 319.799 372.46 320.139C372.06 320.479 371.95 321.079 371.39 321.359C370.83 321.639 370.05 321.479 369.5 321.799C368.957 322.197 368.393 322.564 367.81 322.899C367.273 323.056 366.782 323.341 366.38 323.729C366.02 324.119 365.68 324.999 365.03 324.929C364.38 324.859 364.19 324.159 364.16 323.559C364.183 322.382 364.582 321.243 365.3 320.309C365.938 319.27 366.635 318.268 367.39 317.309C368.124 316.42 368.65 315.378 368.93 314.259C369.16 313.509 369.09 312.559 368.12 312.989C366.99 313.509 365.79 314.589 364.43 314.349C363.49 314.189 363.43 313.449 363.98 312.829C364.884 311.808 365.713 310.721 366.46 309.579C367.22 308.409 367.85 307.179 368.64 306.039C369.066 305.447 369.531 304.882 370.03 304.349C371.41 302.849 371.35 300.799 371.51 298.889C371.73 296.239 371.92 289.439 371.92 289.439L365.72 274.169L363.45 255.649Z" fill="#FFBDA7"/>
<path d="M371.519 298.89C371.579 295.74 371.709 292.59 371.829 289.44C369.829 284.58 367.689 279.23 365.729 274.17C367.889 279.23 369.989 284.313 372.029 289.42C371.869 292.58 371.729 295.74 371.519 298.89Z" fill="white"/>
<path d="M328.88 374.239C330.64 373.619 331.95 373.559 331.93 374.429C331.692 375.501 331.312 376.537 330.8 377.509L329.4 379.439L328.73 381.339C328.73 381.339 327.91 382.339 327.86 382.439C327.81 382.539 327.54 378.889 327.54 378.889C327.54 378.889 326.55 374.689 328.88 374.239Z" fill="#263238"/>
<path d="M347.78 299.999C347.78 299.999 343.78 304.749 341.41 313.649C339.223 321.921 337.553 330.32 336.41 338.799C335.84 342.589 334.92 347.369 333.56 354.799C332.51 360.519 329.21 378.059 329.21 378.059C329.21 378.059 331.11 381.219 333.41 382.179C336.71 383.559 339.89 382.929 340.31 379.979C340.31 379.979 342.49 376.499 345.8 367.519C347.391 363.397 348.662 359.158 349.6 354.839C349.927 352.129 350.024 349.396 349.89 346.669L363.17 323.579C364.638 321.05 366.396 318.7 368.41 316.579C369.654 315.306 370.63 313.796 371.28 312.139C373.48 306.139 370.28 298.069 370.28 298.069L347.78 299.999Z" fill="#263238"/>
<path d="M336.46 338.789C334.32 351.939 331.87 365.039 329.26 378.099C331.56 364.979 334.02 351.889 336.46 338.789Z" fill="white"/>
<path d="M331.28 388.21L330.57 388.07C330.62 387.8 335.94 360.42 339.66 348.92C343.38 337.42 353.13 314.58 353.23 314.35L353.9 314.64C353.8 314.86 344.07 337.69 340.36 349.15C336.65 360.61 331.34 387.94 331.28 388.21Z" fill="black"/>
<path d="M365.26 307.689H343.45C342.652 309.626 341.984 311.614 341.45 313.639C339.433 321.255 337.881 328.986 336.8 336.789C337.33 340.359 337.93 344.029 338.48 346.549C339.95 353.209 340.87 357.909 342.03 360.659C343.15 362.984 344.471 365.206 345.98 367.299C347.533 363.261 348.773 359.108 349.69 354.879C350.017 352.169 350.114 349.436 349.98 346.709L362.98 324.159L363.91 320.609C367.14 315.239 366.77 311.209 365.26 307.689Z" fill="black"/>
<path d="M311 383.109C310.61 382.929 310.13 384.459 310.09 385.009C310.05 385.559 311.09 387.799 313.82 389.449C316.55 391.099 321.24 392.019 323 392.569C324.76 393.119 326.17 394.569 328.49 395.699C330.55 396.699 333.66 397.229 335.02 396.619C335.282 396.463 335.508 396.251 335.68 395.999C335.853 395.747 335.969 395.461 336.02 395.159C336.39 394.029 336.36 393.769 336.22 393.729L311 383.109Z" fill="#37474F"/>
<path d="M337.19 391.229C337.01 392.384 336.628 393.498 336.06 394.519C335.662 394.818 335.209 395.035 334.726 395.157C334.244 395.279 333.742 395.304 333.25 395.229C331.132 395.077 329.093 394.366 327.34 393.169C326.001 392.298 324.556 391.602 323.04 391.099C320.954 390.596 318.905 389.948 316.91 389.159C315.421 388.53 314.036 387.681 312.8 386.639C311.8 385.699 310.87 384.639 310.97 383.319C311.194 382.488 311.67 381.747 312.333 381.197C312.995 380.647 313.812 380.316 314.67 380.249C316.312 380.166 317.955 380.414 319.5 380.979C321 381.487 322.554 381.822 324.13 381.979C325.21 382.069 326.48 382.979 327.32 382.029C328.32 380.929 328.71 378.329 329.38 377.029C329.49 376.819 329.64 376.589 329.87 376.539C330.1 376.489 330.48 376.769 330.69 377.049C331.669 378.271 332.923 379.244 334.35 379.889C338.21 381.799 340 380.789 340 380.789L340.36 379.989C340.36 379.989 341.13 380.419 340.15 382.219C339.323 383.699 338.627 385.248 338.07 386.849C337.583 388.264 337.287 389.736 337.19 391.229Z" fill="#455A64"/>
<path d="M311 383.319C312.21 378.839 317.29 380.039 320.57 381.169C321.732 381.579 322.936 381.857 324.16 381.999C322.923 381.944 321.699 381.725 320.52 381.349C317.28 380.349 312.41 379.069 311 383.349V383.319Z" fill="white"/>
<path d="M320.22 381.179C318.57 381.329 318.12 383.999 318.12 383.999C319.598 384.793 321.207 385.315 322.87 385.539C324.026 385.74 325.216 385.501 326.205 384.87C327.195 384.24 327.913 383.262 328.22 382.129C328.92 379.899 328.28 376.779 328.15 375.769C328.074 375.422 328.136 375.06 328.323 374.757C328.509 374.455 328.806 374.237 329.15 374.149C328.867 374.176 328.592 374.26 328.343 374.397C328.094 374.535 327.876 374.722 327.703 374.947C327.529 375.172 327.404 375.43 327.335 375.706C327.265 375.982 327.254 376.269 327.3 376.549C327.35 377.749 327.3 380.119 326.79 380.909C326.28 381.699 323.73 382.049 320.22 381.179Z" fill="#455A64"/>
<path d="M361.56 299.999C363.962 302.838 365.367 306.386 365.56 310.099C365.725 313.706 364.593 317.254 362.37 320.099C361.54 332.259 359.14 355.669 359.14 355.669C362.35 358.969 363.14 361.109 365.04 367.029C366.17 370.629 370.41 382.199 371.46 385.419C365.84 386.109 362.78 391.699 362.78 391.699C362.78 391.699 352.88 377.079 348.12 368.479C344.59 362.119 342.96 359.799 341.91 356.039C340.61 351.349 340.26 348.929 339.1 341.039C337.94 333.149 336.83 323.109 336.26 315.329C335.69 307.549 335.26 299.329 335.26 299.329L361.56 299.999Z" fill="#263238"/>
<path d="M362.82 391.67C357.05 383.17 351.39 374.57 346.43 365.57C344.798 362.945 343.397 360.185 342.24 357.32C341.314 354.376 340.606 351.368 340.12 348.32C337.568 332.073 335.952 315.692 335.28 299.26L336.12 311.56C336.88 323.87 338.41 336.12 340.37 348.28C341.08 352.28 341.82 356.41 343.64 360.09C349.477 370.951 355.879 381.499 362.82 391.69V391.67Z" fill="white"/>
<path d="M348.83 359.459C345.92 352.039 342.43 311.649 342.61 297.689H341.88C341.82 302.359 342.17 309.969 342.77 318.319C340.4 317.119 338.87 314.919 338.87 303.859H338.14C338.14 314.979 339.59 317.669 342.83 319.159C344.05 335.699 346.23 354.829 348.15 359.739C351 366.999 365.87 391.529 366.01 391.739L366.64 391.359C366.49 391.139 351.66 366.669 348.83 359.459Z" fill="black"/>
<path d="M362 390.43C361.11 391.69 360.1 392.58 362.63 394.26C364.63 395.55 364.7 396.59 365.31 397.97C365.707 399.315 365.87 400.719 365.79 402.12C365.79 402.12 369.15 397.05 368.17 393.78C367.19 390.51 362 390.43 362 390.43Z" fill="#455A64"/>
<path d="M372.77 387.529C373.717 388.528 374.83 389.354 376.06 389.969C376.91 390.499 377.79 390.969 378.06 391.969C378.06 392.079 377.56 392.679 377.57 392.789C377.613 393.266 377.597 393.747 377.52 394.219C377.33 395.869 376.43 397.089 376.23 398.729C376.165 399.384 376.048 400.033 375.88 400.669C375.736 401.444 375.673 402.232 375.69 403.019C375.64 403.839 375.58 404.659 375.54 405.479C375.495 405.828 375.495 406.181 375.54 406.529C375.61 406.879 370.03 409.689 367.78 410.769C367.647 410.834 367.51 410.891 367.37 410.939C365.997 411.313 364.535 411.171 363.26 410.539C358.78 408.909 359.06 407.289 359.06 407.289C359.083 406.618 359.295 405.968 359.672 405.412C360.049 404.856 360.575 404.419 361.19 404.149C361.463 403.991 361.751 403.86 362.05 403.759C363.165 403.346 364.38 403.286 365.53 403.589C365.757 402.924 365.862 402.222 365.84 401.519C365.932 400.469 365.949 399.413 365.89 398.359C365.692 397.17 365.23 396.039 364.54 395.049C363.59 393.739 362.54 392.049 361.91 391.129C361.28 390.209 361.11 387.989 364.84 385.319C368.42 382.769 371.04 383.319 371.55 384.369C371.834 385.466 372.243 386.527 372.77 387.529Z" fill="#455A64"/>
<path d="M359 407.299C359 404.209 362.94 402.659 365.51 403.569C362.88 403.079 359.38 404.299 359 407.299Z" fill="white"/>
<path opacity="0.1" d="M363.14 405.19C363.439 404.427 364.004 403.798 364.73 403.42C364.994 403.45 365.254 403.5 365.51 403.57C365.06 404 363.45 404.64 363.14 405.19Z" fill="black"/>
<path d="M378.58 392.94C379.58 393.36 378.75 394.94 377.58 397.39C376.523 399.2 376.1 401.312 376.38 403.39C376.62 405.56 376.11 406.62 375.17 407.39C374.23 408.16 367.25 411.21 367.25 411.21C368.91 409.113 369.871 406.55 370 403.88C370.38 399.1 370.84 396.03 373.22 393.94C373.96 393.341 374.838 392.936 375.773 392.761C376.709 392.587 377.674 392.648 378.58 392.94Z" fill="black"/>
<path d="M359 407.29C359.11 408.23 361.78 410.13 364.93 410.09C368.08 410.05 368.35 409.38 368.84 405.69C369.33 402 369.67 396.87 371.27 394.69C372.87 392.51 374.97 391.19 378.04 391.99C378.39 392.16 379.34 393.11 378.99 393.99C378.99 393.99 378.99 393.29 377.73 392.92C376.65 392.61 375.36 392.64 373.56 394.2C371.45 396.01 370.98 400.28 370.74 403.94C370.5 407.6 369.36 411.11 366.33 411.44C365.022 411.617 363.691 411.506 362.43 411.116C361.17 410.726 360.009 410.065 359.03 409.18C358.841 408.565 358.83 407.91 359 407.29Z" fill="#37474F"/>
<path d="M340.94 232.69C340.532 232.115 340.28 231.444 340.21 230.743C340.14 230.042 340.254 229.334 340.54 228.69C341.05 227.39 342.11 226.02 345.2 224.42C348.88 222.52 358.98 221.16 363.98 227.77C364.7 228.77 354.76 247.42 355.25 251.29C352.67 248.58 344.16 239.05 344.16 239.05C342.16 238.19 340.92 237.46 340.49 235.56C340.334 234.58 340.492 233.575 340.94 232.69Z" fill="#263238"/>
<path d="M344.16 239C341.16 238.21 339.25 235.58 340.94 232.66C339.66 235.66 341.37 237.84 344.16 239Z" fill="white"/>
<path d="M340.94 232.689C339.68 231.309 339.99 229.089 340.94 227.609C342.043 226.173 343.515 225.064 345.2 224.399C344.431 224.842 343.69 225.329 342.98 225.859C340.89 227.309 339.33 230.359 340.98 232.689H340.94Z" fill="white"/>
<path d="M342.46 238C342.46 238 339.73 242.45 340.04 242.82C340.668 243.319 341.337 243.764 342.04 244.15L342.46 238Z" fill="#F0997A"/>
<path d="M342.46 238C341.78 239.43 340.96 240.78 340.29 242.2C340.2 242.43 340.01 242.7 340.14 242.86C340.312 243.058 340.514 243.227 340.74 243.36C340.47 243.21 340.02 243.09 339.96 242.73C340.51 241.019 341.357 239.418 342.46 238Z" fill="white"/>
<path d="M345.84 229.86C344.01 230.73 342.43 232.13 341.84 236.14C341.69 237.19 342.51 238.62 342.14 240.01C340.55 246.01 342.44 251.01 343.6 252.06C344.38 252.8 348.48 253.13 350.6 252.53C353.29 251.78 359.14 249.14 361.93 244.93C365.21 239.93 365.93 233.33 362.32 230.66C357.23 226.9 347.79 228.94 345.84 229.86Z" fill="#FFBDA7"/>
<path d="M341.86 236.14C341.86 237.5 342.66 238.83 342.2 240.22C341.35 244.09 341.29 248.69 343.62 252.06C341.06 248.8 341.06 244.06 342.04 240.18C342.5 238.86 341.74 237.51 341.86 236.18V236.14Z" fill="white"/>
<path d="M359.83 247.76L360.89 255.13C362.54 255.48 362.69 257.43 361.89 258.9L362.28 260.98L351 263L349.74 252.69L359.83 247.76Z" fill="#FFBDA7"/>
<path d="M343.84 252.21C344.84 252.74 346.89 253.13 349.75 252.73L349.58 251.27C348.673 251.61 347.74 251.878 346.79 252.07C345.819 252.262 344.825 252.309 343.84 252.21Z" fill="#F0997A"/>
<path d="M343.14 232C343.064 232.865 343.29 233.73 343.781 234.447C344.272 235.163 344.996 235.688 345.83 235.93C345.385 236.888 345.218 237.952 345.35 239C345.387 239.619 345.601 240.214 345.966 240.716C346.331 241.217 346.832 241.604 347.41 241.83C348.2 242.1 348.41 241.75 348.72 241.12C349.12 240.23 349.63 238.87 351.54 239.12C353.73 239.42 354.31 242.72 353.03 244.88C352.784 245.336 352.431 245.726 352 246.015C351.57 246.305 351.076 246.485 350.56 246.54C350.276 246.535 349.996 246.471 349.74 246.35C349.483 246.229 349.254 246.055 349.07 245.84C349.07 245.84 349.21 248.72 352.92 250.43C355.24 251.664 357.928 252.019 360.49 251.43C362.215 249.514 363.84 247.512 365.36 245.43C369.36 239.59 370.21 228.9 363.36 226.98C363.03 226.89 356.8 225.98 353.76 226.68C344.39 228.68 343.16 231.55 343.14 232Z" fill="#263238"/>
<path d="M360.05 226.23C359.222 226.827 358.653 227.718 358.46 228.72C358.374 229.22 358.422 229.733 358.597 230.209C358.773 230.685 359.07 231.106 359.46 231.43C361.46 233 364.58 231.17 364.95 228.85C365.37 226.11 362.07 224.73 360.05 226.23Z" fill="#F97316"/>
<path d="M361.68 227.1C359.63 228.36 358.35 231.33 359.44 233.47C359.74 234.05 360.16 234.57 360.44 235.18C361.23 237.13 360.08 239.28 359.83 241.37C359.659 243.029 359.946 244.703 360.66 246.21C361.34 247.32 362.84 247.6 363.44 248.76C363.85 249.56 363.57 250.54 363.73 251.43C364.08 253.34 366.34 254.26 368.29 254.3C369.115 254.373 369.945 254.264 370.723 253.98C371.5 253.697 372.206 253.246 372.79 252.66C373.237 251.965 373.725 251.297 374.25 250.66C375.41 249.57 377.25 249.66 378.53 248.66C379.004 248.242 379.374 247.72 379.614 247.136C379.853 246.552 379.954 245.92 379.91 245.29C379.792 244.027 379.454 242.795 378.91 241.65C378.08 239.65 378.74 238.36 379.16 236.33C379.357 235.233 379.175 234.103 378.645 233.123C378.114 232.144 377.266 231.374 376.24 230.94C374.83 230.38 373.11 230.47 371.97 229.46C371.429 228.82 370.922 228.152 370.45 227.46C368.31 225.11 364.09 225.63 361.68 227.1Z" fill="#263238"/>
<path d="M369.73 261.16C369.28 259.938 368.568 258.829 367.644 257.911C366.72 256.994 365.605 256.29 364.38 255.85C363.38 255.55 360.89 255.13 360.89 255.13C361.46 256.43 360.5 257.29 358.81 257.68C356.64 258.19 353.33 258.24 351.08 256.75L350.16 256.18C347.705 256.783 345.281 257.511 342.9 258.36C342.41 258.59 339.7 259.5 335.44 269.07C333.62 273.16 334.16 277.31 337.51 280.26C337.7 282.85 336.03 288.68 336.03 288.68C335.181 293.545 334.986 298.503 335.45 303.42C335.45 303.42 337.45 308.72 353.31 308.66C365.58 308.66 371.75 302.66 371.75 302.66C371.6 299.66 366.88 289.13 367.35 285.59C368.08 280.43 372.81 271.18 369.73 261.16Z" fill="#F97316"/>
<path d="M342.9 258.359C346.13 260.989 346.38 264.599 345.9 269.469C345.42 274.339 340.53 289.559 339.53 292.869C338.53 296.179 337.1 297.329 334.58 300.009C332.06 302.689 326.17 306.949 323.24 309.389C321.88 310.519 320.67 311.699 319.38 312.929C317.97 314.118 316.48 315.207 314.92 316.189C314.19 316.688 313.341 316.985 312.46 317.049C311.9 317.049 311.41 316.789 310.88 316.829C310.35 316.869 309.88 317.289 309.3 317.189C308.72 317.089 308.14 316.499 307.51 316.429C306.842 316.439 306.174 316.409 305.51 316.339C304.983 316.144 304.415 316.086 303.86 316.169C303.34 316.269 302.55 316.779 302.06 316.349C301.57 315.919 301.84 315.229 302.16 314.719C302.867 313.765 303.863 313.064 305 312.719C306.125 312.254 307.277 311.857 308.45 311.529C309.553 311.233 310.577 310.697 311.45 309.959C312.07 309.489 312.57 308.669 311.54 308.459C310.32 308.209 308.71 308.379 307.74 307.389C307.08 306.709 307.47 306.079 308.28 305.899C309.611 305.605 310.918 305.211 312.19 304.719C313.49 304.219 314.72 303.589 316.03 303.129C316.728 302.904 317.439 302.72 318.16 302.579C320.16 302.169 321.31 300.479 322.55 299.029C324.29 297.029 327.28 293.209 329.31 290.469L332.38 275.619C334.32 267.559 335 260.799 342.9 258.359Z" fill="#FFBDA7"/>
<path d="M345.88 269.47C345.1 273.87 344.027 278.213 342.67 282.47C342.57 282.82 342.46 283.16 342.36 283.47C341.13 287.64 339.94 291.4 339.5 292.86C338.6 295.86 337.33 297.1 335.22 299.3L334.55 300C331.92 302.79 326.14 306.94 323.21 309.39C321.86 310.52 320.64 311.69 319.36 312.92C317.947 314.112 316.454 315.205 314.89 316.19C314.159 316.686 313.31 316.979 312.43 317.04C311.87 317.09 311.38 316.78 310.85 316.82C310.32 316.86 309.85 317.28 309.27 317.18C308.69 317.08 308.11 316.49 307.48 316.43C306.812 316.436 306.144 316.403 305.48 316.33C304.952 316.139 304.385 316.081 303.83 316.16C303.67 316.16 303.48 316.27 303.28 316.34L303.03 316.42C302.917 316.462 302.8 316.489 302.68 316.5C302.568 316.523 302.453 316.52 302.342 316.492C302.231 316.465 302.128 316.413 302.04 316.34C301.49 315.86 301.81 315.23 302.13 314.72C302.837 313.765 303.833 313.064 304.97 312.72C306.095 312.252 307.247 311.851 308.42 311.52C309.523 311.224 310.548 310.688 311.42 309.95C312.04 309.48 312.54 308.67 311.51 308.45C310.29 308.2 308.68 308.37 307.72 307.39C307.05 306.7 307.44 306.07 308.25 305.89C309.581 305.598 310.889 305.203 312.16 304.71C313.46 304.21 314.7 303.58 316 303.13C316.696 302.898 317.408 302.714 318.13 302.58C320.13 302.17 321.28 300.47 322.52 299.03C324.26 297.03 327.25 293.2 329.29 290.46L332.35 275.61C334.29 267.51 335 260.75 342.87 258.32C343.682 258.979 344.361 259.787 344.87 260.7C346.21 263.06 346.24 265.93 345.88 269.47Z" fill="#FFBDA7"/>
<path d="M302 316.35C301.813 316.161 301.702 315.91 301.688 315.645C301.673 315.38 301.756 315.119 301.92 314.91C302.67 313.46 304.3 312.84 305.74 312.35C306.697 311.9 307.704 311.564 308.74 311.35C309.723 311.046 310.646 310.576 311.47 309.96C310.69 310.659 309.779 311.197 308.79 311.54C306.793 312.03 304.874 312.797 303.09 313.82C302.43 314.35 301.28 315.46 302.04 316.31L302 316.35Z" fill="white"/>
<path d="M307.74 307.429C306.5 306.009 308.9 305.829 309.8 305.529C312.18 304.919 314.28 303.609 316.62 302.949C317.82 302.766 318.967 302.333 319.99 301.679C321.62 300.389 323.37 297.799 324.72 296.169L329.22 290.439C330.22 285.439 331.81 277.649 333 272.569C334.27 266.569 336.22 260.159 342.9 258.359C336.32 260.229 334.4 266.599 333.18 272.609C331.98 277.769 330.54 285.319 329.41 290.609L324.87 296.329C323.48 297.969 321.77 300.509 320.08 301.839C319.044 302.495 317.883 302.928 316.67 303.109C314.33 303.759 312.2 305.039 309.82 305.609C308.91 305.899 306.53 306.029 307.74 307.459V307.429Z" fill="white"/>
<path opacity="0.3" d="M365.51 323.409C365.51 323.798 365.617 324.178 365.82 324.509C366.03 324.249 366.21 323.929 366.39 323.729C366.792 323.341 367.283 323.056 367.82 322.899C368.403 322.564 368.967 322.197 369.51 321.799C370.05 321.479 370.77 321.669 371.4 321.359C372.03 321.049 372.05 320.499 372.47 320.139C372.89 319.779 373.47 319.759 373.87 319.389C374.55 318.823 375.065 318.084 375.36 317.249C376.049 315.538 376.617 313.78 377.06 311.989C377.38 310.239 377.67 308.569 378.11 306.859C379.05 303.159 381.29 296.409 381.78 292.609C382.25 288.969 381.91 287.769 380.78 284.509C379.65 281.249 375.48 265.509 373.03 261.239C370.71 257.239 368.78 256.699 364.22 255.799L363.95 255.729L363.49 255.629L363.13 255.549L362.67 255.459L362.4 255.409L361.74 255.279L361.24 255.189H361.11H360.9L360.37 251.499H360.5C361.31 250.499 362.2 249.549 363.13 248.429C363.243 248.561 363.341 248.705 363.42 248.859C363.84 249.659 363.55 250.629 363.71 251.519C364.06 253.439 366.32 254.349 368.27 254.399C369.095 254.468 369.925 254.356 370.702 254.071C371.479 253.786 372.185 253.335 372.77 252.749C373.22 252.057 373.708 251.39 374.23 250.749C375.39 249.659 377.23 249.749 378.52 248.749C378.992 248.329 379.362 247.805 379.599 247.219C379.837 246.633 379.936 246 379.89 245.369C379.777 244.106 379.438 242.873 378.89 241.729C378.06 239.729 378.72 238.439 379.14 236.419C379.338 235.323 379.158 234.191 378.629 233.21C378.101 232.229 377.255 231.457 376.23 231.019C374.81 230.459 373.09 230.559 371.95 229.539C371.412 228.899 370.908 228.232 370.44 227.539C368.84 225.789 366.09 225.639 363.79 226.279C363.222 225.885 362.541 225.685 361.85 225.709C358.73 223.289 354.66 222.709 351.17 222.989C349.857 223.541 348.669 224.354 347.68 225.379C344.54 228.489 342.68 233.059 343.5 237.379C343.66 238.189 343.91 238.969 344.04 239.779C344.37 241.849 343.91 243.959 343.92 246.059C343.93 248.159 344.59 250.479 346.41 251.509C347.79 252.279 349.48 252.129 351.05 252.329C353.63 252.659 353.33 254.249 353.43 256.439C353.473 256.775 353.446 257.115 353.35 257.439C353.31 257.556 353.249 257.665 353.17 257.759C352.5 258.589 350.6 258.919 349.76 259.199C348.095 259.603 346.469 260.152 344.9 260.839C344.179 261.205 343.556 261.736 343.08 262.389C341.17 265.069 340.36 268.259 339.55 271.389C338.8 274.289 338.01 277.189 337.18 280.069C336.433 282.683 335.653 285.283 334.84 287.869C334.207 290.223 333.258 292.48 332.02 294.579C330.47 296.949 328.25 298.789 326.25 300.809C321.72 305.389 317.93 311.249 311.87 313.449C309.54 314.289 307.04 314.519 304.65 315.159C303.82 315.379 302.88 315.819 302.65 316.589C302.77 316.578 302.887 316.551 303 316.509L303.25 316.429C303.45 316.359 303.64 316.289 303.8 316.249C304.356 316.17 304.922 316.229 305.45 316.419C306.114 316.492 306.782 316.525 307.45 316.519C308.08 316.579 308.55 317.159 309.24 317.269C309.93 317.379 310.24 316.949 310.82 316.909C311.4 316.869 311.82 317.179 312.4 317.129C313.281 317.068 314.129 316.775 314.86 316.279C316.424 315.294 317.917 314.201 319.33 313.009C320.61 311.779 321.83 310.609 323.18 309.479C326.11 307.029 331.89 302.879 334.52 300.089L335.19 299.389C337.29 297.199 338.56 295.969 339.46 292.959C339.9 291.499 341.09 287.739 342.32 283.569L342.63 282.569C343.092 283.132 343.333 283.842 343.31 284.569C343.68 289.429 344.84 294.349 345.63 299.189C346.19 302.639 346.76 306.089 347.02 309.569C347.22 312.089 347.25 314.569 347.29 317.129L347.53 335.129C347.53 336.129 347.53 337.129 347.58 338.189C347.593 341.022 347.787 343.851 348.16 346.659C348.486 349.135 349.025 351.577 349.77 353.959C349.95 354.539 350.14 355.119 350.35 355.699C352.42 361.449 355.67 366.699 358.8 371.879C361.975 377.414 364.824 383.131 367.33 388.999C367.844 390.026 368.22 391.115 368.45 392.239C368.77 394.179 368.24 396.149 368.09 398.109C367.94 400.069 368.16 401.949 368.09 403.869C368.133 405.802 367.574 407.699 366.49 409.299C365.708 410.307 364.626 411.039 363.4 411.389C364.361 411.557 365.341 411.587 366.31 411.479C366.869 411.428 367.407 411.243 367.88 410.939C370.354 409.896 372.771 408.721 375.12 407.419C376.06 406.669 376.57 405.599 376.34 403.419C376.051 401.343 376.47 399.229 377.53 397.419C378.171 396.32 378.663 395.14 378.99 393.909C379.24 393.059 378.36 392.179 377.99 392.009C377.74 391.009 376.86 390.529 375.99 390.009C374.763 389.394 373.653 388.568 372.71 387.569C372.169 386.563 371.749 385.495 371.46 384.389C371.332 384.146 371.133 383.947 370.89 383.819C369.35 379.389 366 370.179 365.01 367.049C363.15 361.119 362.32 358.979 359.11 355.679C359.11 355.679 360.88 338.399 361.91 325.829L363.15 323.659C363.28 323.429 363.41 323.209 363.55 322.989C364.938 320.726 366.561 318.614 368.39 316.689C368.57 316.499 368.75 316.279 368.93 316.069C368.66 316.519 368.4 316.969 368.1 317.409C366.91 319.229 365.42 321.179 365.51 323.409ZM371.63 302.789L371.75 302.679C371.69 302.029 371.566 301.386 371.38 300.759C371.15 299.909 370.83 298.899 370.48 297.809C370.37 297.469 370.25 297.119 370.13 296.809C369.72 295.589 369.28 294.289 368.88 293.029C368.75 292.639 368.63 292.249 368.52 291.869C368.41 291.489 368.26 291.029 368.15 290.629C368.04 290.229 367.99 290.059 367.92 289.779C367.92 289.689 367.87 289.589 367.85 289.499C367.83 289.409 367.76 289.129 367.72 288.959C367.64 288.629 367.57 288.319 367.52 288.019L367.46 287.689C367.455 287.613 367.455 287.536 367.46 287.459C367.431 287.314 367.411 287.167 367.4 287.019V286.719C367.39 286.54 367.39 286.359 367.4 286.179C367.389 286.006 367.389 285.833 367.4 285.659C367.67 284.107 368.041 282.574 368.51 281.069C368.83 279.909 369.19 278.669 369.51 277.349C370.46 279.119 371.38 280.889 372.3 282.669C373.09 284.077 373.759 285.549 374.3 287.069C375.4 290.529 375.13 294.279 374.71 297.889C374.271 302.007 373.358 306.061 371.99 309.969C372.282 307.573 372.161 305.144 371.63 302.789Z" fill="black"/>
</svg>
