<?xml version="1.0" standalone="no"?>
<!DOCTYPE svg PUBLIC "-//W3C//DTD SVG 20010904//EN"
 "http://www.w3.org/TR/2001/REC-SVG-20010904/DTD/svg10.dtd">
<svg version="1.0" xmlns="http://www.w3.org/2000/svg"
 width="300.000000pt" height="300.000000pt" viewBox="0 0 300.000000 300.000000"
 preserveAspectRatio="xMidYMid meet">
<metadata>
Created by potrace 1.10, written by Peter Selinger 2001-2011
</metadata>
<g transform="translate(0.000000,300.000000) scale(0.100000,-0.100000)"
fill="#000000" stroke="none">
<path d="M1396 1884 c-81 -42 -91 -44 -118 -33 -25 10 -33 9 -56 -8 -30 -22
-40 -57 -22 -78 9 -11 0 -35 -39 -113 -28 -54 -51 -103 -51 -108 0 -5 22 -51
49 -103 42 -81 47 -97 38 -121 -13 -34 -5 -54 28 -76 21 -14 30 -14 54 -5 25
11 37 8 125 -36 l96 -48 96 48 c88 44 100 47 125 36 24 -9 33 -9 54 5 33 22
41 42 28 76 -9 25 -4 40 38 120 27 51 49 97 49 103 0 6 -23 55 -51 109 -39 78
-48 102 -39 113 18 21 8 56 -22 78 -23 17 -31 18 -56 8 -27 -11 -37 -9 -121
33 -50 25 -96 46 -103 45 -7 0 -53 -20 -102 -45z m149 -14 c18 -20 17 -20 -45
-20 -62 0 -63 0 -45 20 10 11 30 20 45 20 15 0 35 -9 45 -20z m-272 -37 c6
-10 439 -9 455 1 15 9 52 -2 52 -15 1 -5 1 -129 1 -275 0 -220 -2 -269 -14
-281 -11 -12 -19 -12 -35 -4 -26 14 -436 15 -461 1 -13 -6 -24 -5 -35 3 -16
12 -17 40 -17 286 0 216 3 276 13 282 16 11 35 11 41 2z m-81 -293 c-4 -65
-12 -74 -30 -35 -15 32 -15 48 -1 79 20 42 34 21 31 -44z m658 8 c0 -9 -5 -29
-12 -43 -8 -18 -14 -22 -20 -13 -10 16 -11 102 -1 112 8 8 32 -32 33 -56z
m-288 -305 c-6 -2 -10 -9 -6 -14 3 -5 -7 -14 -23 -20 -35 -13 -85 0 -89 24 -2
15 7 17 64 16 37 0 61 -3 54 -6z"/>
<path d="M1290 1785 c-6 -15 -17 -25 -30 -25 -19 0 -20 -6 -20 -189 0 -104 -3
-196 -6 -205 -4 -9 4 -20 24 -30 16 -8 32 -23 34 -34 5 -17 19 -18 209 -17
186 0 204 1 207 18 2 9 16 23 30 31 l27 14 -3 206 c-3 198 -4 206 -23 206 -12
0 -23 10 -29 25 l-10 25 -200 0 -200 0 -10 -25z m405 -16 c4 -11 18 -24 31
-29 l24 -10 0 -182 0 -183 -30 -17 c-17 -9 -30 -24 -30 -33 0 -13 -25 -15
-190 -15 -165 0 -190 2 -190 15 0 9 -13 24 -30 33 l-30 17 0 178 0 179 33 32
32 33 187 2 c180 1 187 0 193 -20z"/>
<path d="M1447 1703 c-31 -48 -85 -99 -114 -108 -26 -7 -41 -50 -26 -74 5 -9
20 -21 32 -27 35 -18 99 -84 105 -109 13 -50 86 -49 108 2 16 39 79 103 100
103 10 0 25 11 34 25 22 34 7 69 -38 88 -39 17 -73 52 -96 98 -13 26 -24 35
-49 37 -28 3 -35 -2 -56 -35z m74 17 c10 -6 19 -18 19 -27 0 -22 79 -103 100
-103 46 0 55 -64 13 -82 -37 -16 -113 -88 -113 -108 0 -44 -52 -53 -77 -12
-38 59 -85 110 -108 116 -36 9 -51 43 -29 67 9 10 23 19 31 19 18 0 103 86
103 105 0 8 8 19 18 24 21 13 20 13 43 1z"/>
<path d="M1435 1610 c-45 -46 -46 -82 -4 -129 45 -49 86 -50 132 -3 47 50 47
88 1 133 -47 46 -84 46 -129 -1z m117 -7 c19 -18 28 -37 28 -58 0 -38 -45 -85
-81 -85 -30 0 -86 56 -86 85 0 29 56 85 86 85 14 0 38 -12 53 -27z"/>
<path d="M1059 1035 c-6 -50 1 -200 10 -203 8 -3 11 28 11 102 0 64 -4 106
-10 106 -5 0 -10 -2 -11 -5z"/>
<path d="M1187 983 c-4 -3 -19 -6 -34 -5 l-28 1 2 -72 c1 -53 5 -72 14 -72 10
0 14 16 14 54 0 40 4 56 18 65 32 20 52 -4 53 -65 1 -39 5 -54 15 -54 24 0 13
115 -13 138 -22 18 -31 21 -41 10z"/>
<path d="M1456 969 c-20 -16 -26 -29 -26 -59 0 -30 6 -43 26 -59 15 -12 35
-21 44 -21 23 0 67 36 57 46 -4 4 -13 2 -19 -4 -15 -15 -51 -15 -66 0 -22 22
-12 28 44 28 l56 0 -6 28 c-8 31 -40 62 -66 62 -9 0 -29 -9 -44 -21z m72 -21
c21 -21 13 -28 -28 -28 -38 0 -52 14 -33 33 11 11 48 8 61 -5z"/>
<path d="M1580 977 c0 -8 9 -22 20 -32 26 -24 25 -37 -5 -73 -28 -34 -31 -42
-12 -42 6 0 24 14 38 32 l27 32 16 -32 c9 -18 23 -32 31 -32 21 0 19 11 -10
50 l-25 33 25 33 c30 39 31 44 7 37 -10 -2 -25 -16 -34 -30 -16 -26 -16 -26
-27 -5 -15 28 -51 48 -51 29z"/>
<path d="M1753 978 c-33 -16 -48 -61 -33 -98 23 -55 75 -66 115 -25 61 60 -6
161 -82 123z m65 -30 c7 -7 12 -24 12 -38 0 -52 -61 -71 -82 -25 -23 51 32
101 70 63z"/>
<path d="M1918 983 c-28 -4 -28 -5 -28 -79 0 -56 3 -75 13 -72 7 3 14 29 17
64 4 52 8 59 28 62 22 3 32 33 10 31 -7 -1 -25 -4 -40 -6z"/>
<path d="M1302 913 c17 -38 34 -72 38 -76 6 -6 35 50 67 131 3 6 -2 12 -10 12
-8 0 -23 -21 -34 -47 l-20 -48 -21 48 c-11 26 -28 47 -36 47 -12 0 -8 -14 16
-67z"/>
<path d="M2776 199 c-19 -15 -26 -30 -26 -54 0 -67 91 -100 144 -53 38 35 41
61 10 97 -32 38 -86 43 -128 10z m114 -19 c41 -41 10 -90 -57 -90 -35 0 -73
29 -73 55 0 27 38 55 75 55 22 0 43 -8 55 -20z"/>
</g>
</svg>
