<?xml version="1.0" standalone="no"?><svg xmlns:xlink="http://www.w3.org/1999/xlink" xmlns="http://www.w3.org/2000/svg" viewBox="0 0 1000 647.0631370536041" preserveAspectRatio="xMaxYMax slice"><g transform="scale(1.4665982254161471)"><rect x="0" y="0" width="681.8545454545456" height="441.2000000000001" fill="#111827"/><circle cx="20.049999999999997" cy="20.049999999999997" r="4.01" fill="#d89721"/><circle cx="60.16" cy="20.049999999999997" r="4.01" fill="#a97923"/><circle cx="100.27000000000001" cy="20.049999999999997" r="4.01" fill="#7b421f"/><circle cx="140.38" cy="20.049999999999997" r="4.01" fill="#d96718"/><circle cx="180.48999999999998" cy="20.049999999999997" r="4.01" fill="#ba5a1b"/><circle cx="220.6" cy="20.049999999999997" r="4.01" fill="#f5a920"/><circle cx="260.71" cy="20.049999999999997" r="4.01" fill="#1e1d26"/><circle cx="300.82" cy="20.049999999999997" r="4.01" fill="#ca8e22"/><circle cx="340.93" cy="20.049999999999997" r="4.01" fill="#c28922"/><circle cx="381.03999999999996" cy="20.049999999999997" r="4.01" fill="#a77823"/><circle cx="421.14" cy="20.049999999999997" r="4.01" fill="#8f6923"/><circle cx="461.25" cy="20.049999999999997" r="4.01" fill="#121827"/><circle cx="501.36" cy="20.049999999999997" r="4.01" fill="#322525"/><circle cx="541.47" cy="20.049999999999997" r="4.01" fill="#795a24"/><circle cx="581.58" cy="20.049999999999997" r="4.01" fill="#f67216"/><circle cx="621.6899999999999" cy="20.049999999999997" r="4.01" fill="#944b1d"/><circle cx="661.8" cy="20.049999999999997" r="4.01" fill="#cf9121"/><circle cx="20.049999999999997" cy="60.16" r="4.01" fill="#c35e1a"/><circle cx="60.16" cy="60.16" r="4.01" fill="#826024"/><circle cx="100.27000000000001" cy="60.16" r="4.01" fill="#896523"/><circle cx="140.38" cy="60.16" r="4.01" fill="#141a27"/><circle cx="180.48999999999998" cy="60.16" r="4.01" fill="#2e2325"/><circle cx="220.6" cy="60.16" r="4.01" fill="#5e3621"/><circle cx="260.71" cy="60.16" r="4.01" fill="#683a21"/><circle cx="300.82" cy="60.16" r="4.01" fill="#3a2824"/><circle cx="340.93" cy="60.16" r="4.01" fill="#131927"/><circle cx="381.03999999999996" cy="60.16" r="4.01" fill="#db6718"/><circle cx="421.14" cy="60.16" r="4.01" fill="#936b23"/><circle cx="461.25" cy="60.16" r="4.01" fill="#886423"/><circle cx="501.36" cy="60.16" r="4.01" fill="#141a27"/><circle cx="541.47" cy="60.16" r="4.01" fill="#7d5d24"/><circle cx="581.58" cy="60.16" r="4.01" fill="#f57216"/><circle cx="621.6899999999999" cy="60.16" r="4.01" fill="#412b23"/><circle cx="661.8" cy="60.16" r="4.01" fill="#826024"/><circle cx="20.049999999999997" cy="100.27000000000001" r="4.01" fill="#733e20"/><circle cx="60.16" cy="100.27000000000001" r="4.01" fill="#79411f"/><circle cx="100.27000000000001" cy="100.27000000000001" r="4.01" fill="#f3a820"/><circle cx="140.38" cy="100.27000000000001" r="4.01" fill="#de9b21"/><circle cx="180.48999999999998" cy="100.27000000000001" r="4.01" fill="#a4521c"/><circle cx="220.6" cy="100.27000000000001" r="4.01" fill="#302425"/><circle cx="260.71" cy="100.27000000000001" r="4.01" fill="#994d1d"/><circle cx="300.82" cy="100.27000000000001" r="4.01" fill="#1d1f27"/><circle cx="340.93" cy="100.27000000000001" r="4.01" fill="#da6718"/><circle cx="381.03999999999996" cy="100.27000000000001" r="4.01" fill="#83451f"/><circle cx="421.14" cy="100.27000000000001" r="4.01" fill="#8d491e"/><circle cx="461.25" cy="100.27000000000001" r="4.01" fill="#211e26"/><circle cx="501.36" cy="100.27000000000001" r="4.01" fill="#211e26"/><circle cx="541.47" cy="100.27000000000001" r="4.01" fill="#785a24"/><circle cx="581.58" cy="100.27000000000001" r="4.01" fill="#984d1d"/><circle cx="621.6899999999999" cy="100.27000000000001" r="4.01" fill="#222327"/><circle cx="661.8" cy="100.27000000000001" r="4.01" fill="#514125"/><circle cx="20.049999999999997" cy="140.38" r="4.01" fill="#9b7023"/><circle cx="60.16" cy="140.38" r="4.01" fill="#171c27"/><circle cx="100.27000000000001" cy="140.38" r="4.01" fill="#de6818"/><circle cx="140.38" cy="140.38" r="4.01" fill="#2a2225"/><circle cx="180.48999999999998" cy="140.38" r="4.01" fill="#4e3023"/><circle cx="220.6" cy="140.38" r="4.01" fill="#984d1d"/><circle cx="260.71" cy="140.38" r="4.01" fill="#cb6119"/><circle cx="300.82" cy="140.38" r="4.01" fill="#84451f"/><circle cx="340.93" cy="140.38" r="4.01" fill="#efa620"/><circle cx="381.03999999999996" cy="140.38" r="4.01" fill="#b27f22"/><circle cx="421.14" cy="140.38" r="4.01" fill="#81441f"/><circle cx="461.25" cy="140.38" r="4.01" fill="#231f26"/><circle cx="501.36" cy="140.38" r="4.01" fill="#c28922"/><circle cx="541.47" cy="140.38" r="4.01" fill="#1f2127"/><circle cx="581.58" cy="140.38" r="4.01" fill="#a4521c"/><circle cx="621.6899999999999" cy="140.38" r="4.01" fill="#6f5424"/><circle cx="661.8" cy="140.38" r="4.01" fill="#6c5224"/><circle cx="20.049999999999997" cy="180.48999999999998" r="4.01" fill="#4a2f23"/><circle cx="60.16" cy="180.48999999999998" r="4.01" fill="#a47623"/><circle cx="100.27000000000001" cy="180.48999999999998" r="4.01" fill="#5c4825"/><circle cx="140.38" cy="180.48999999999998" r="4.01" fill="#f57116"/><circle cx="180.48999999999998" cy="180.48999999999998" r="4.01" fill="#4a3c25"/><circle cx="220.6" cy="180.48999999999998" r="4.01" fill="#986e23"/><circle cx="260.71" cy="180.48999999999998" r="4.01" fill="#302425"/><circle cx="300.82" cy="180.48999999999998" r="4.01" fill="#914a1e"/><circle cx="340.93" cy="180.48999999999998" r="4.01" fill="#1d1d26"/><circle cx="381.03999999999996" cy="180.48999999999998" r="4.01" fill="#af561b"/><circle cx="421.14" cy="180.48999999999998" r="4.01" fill="#db6718"/><circle cx="461.25" cy="180.48999999999998" r="4.01" fill="#db9921"/><circle cx="501.36" cy="180.48999999999998" r="4.01" fill="#ad7b22"/><circle cx="541.47" cy="180.48999999999998" r="4.01" fill="#b5581b"/><circle cx="581.58" cy="180.48999999999998" r="4.01" fill="#7a5b24"/><circle cx="621.6899999999999" cy="180.48999999999998" r="4.01" fill="#4d2f23"/><circle cx="661.8" cy="180.48999999999998" r="4.01" fill="#312d26"/><circle cx="20.049999999999997" cy="220.6" r="4.01" fill="#3f3626"/><circle cx="60.16" cy="220.6" r="4.01" fill="#302425"/><circle cx="100.27000000000001" cy="220.6" r="4.01" fill="#161a27"/><circle cx="140.38" cy="220.6" r="4.01" fill="#dd9a21"/><circle cx="180.48999999999998" cy="220.6" r="4.01" fill="#4f3022"/><circle cx="220.6" cy="220.6" r="4.01" fill="#2c2926"/><circle cx="260.71" cy="220.6" r="4.01" fill="#9a7023"/><circle cx="300.82" cy="220.6" r="4.01" fill="#6d3c20"/><circle cx="340.93" cy="220.6" r="4.01" fill="#8d6723"/><circle cx="381.03999999999996" cy="220.6" r="4.01" fill="#1e1d26"/><circle cx="421.14" cy="220.6" r="4.01" fill="#c8601a"/><circle cx="461.25" cy="220.6" r="4.01" fill="#b95a1b"/><circle cx="501.36" cy="220.6" r="4.01" fill="#bd5b1a"/><circle cx="541.47" cy="220.6" r="4.01" fill="#1b1e27"/><circle cx="581.58" cy="220.6" r="4.01" fill="#b78222"/><circle cx="621.6899999999999" cy="220.6" r="4.01" fill="#974d1d"/><circle cx="661.8" cy="220.6" r="4.01" fill="#eb6d17"/><circle cx="20.049999999999997" cy="260.71" r="4.01" fill="#87461e"/><circle cx="60.16" cy="260.71" r="4.01" fill="#4a2e23"/><circle cx="100.27000000000001" cy="260.71" r="4.01" fill="#373026"/><circle cx="140.38" cy="260.71" r="4.01" fill="#c18822"/><circle cx="180.48999999999998" cy="260.71" r="4.01" fill="#8d6723"/><circle cx="220.6" cy="260.71" r="4.01" fill="#d59521"/><circle cx="260.71" cy="260.71" r="4.01" fill="#272626"/><circle cx="300.82" cy="260.71" r="4.01" fill="#3b2924"/><circle cx="340.93" cy="260.71" r="4.01" fill="#c08822"/><circle cx="381.03999999999996" cy="260.71" r="4.01" fill="#5d4825"/><circle cx="421.14" cy="260.71" r="4.01" fill="#745724"/><circle cx="461.25" cy="260.71" r="4.01" fill="#8e6823"/><circle cx="501.36" cy="260.71" r="4.01" fill="#7f5e24"/><circle cx="541.47" cy="260.71" r="4.01" fill="#954c1d"/><circle cx="581.58" cy="260.71" r="4.01" fill="#5d3621"/><circle cx="621.6899999999999" cy="260.71" r="4.01" fill="#7e431f"/><circle cx="661.8" cy="260.71" r="4.01" fill="#f57116"/><circle cx="20.049999999999997" cy="300.82" r="4.01" fill="#b4581b"/><circle cx="60.16" cy="300.82" r="4.01" fill="#1a1c26"/><circle cx="100.27000000000001" cy="300.82" r="4.01" fill="#a57723"/><circle cx="140.38" cy="300.82" r="4.01" fill="#644d25"/><circle cx="180.48999999999998" cy="300.82" r="4.01" fill="#de6818"/><circle cx="220.6" cy="300.82" r="4.01" fill="#504025"/><circle cx="260.71" cy="300.82" r="4.01" fill="#d69621"/><circle cx="300.82" cy="300.82" r="4.01" fill="#a9541c"/><circle cx="340.93" cy="300.82" r="4.01" fill="#dc6818"/><circle cx="381.03999999999996" cy="300.82" r="4.01" fill="#a0501d"/><circle cx="421.14" cy="300.82" r="4.01" fill="#d89721"/><circle cx="461.25" cy="300.82" r="4.01" fill="#372724"/><circle cx="501.36" cy="300.82" r="4.01" fill="#3d3426"/><circle cx="541.47" cy="300.82" r="4.01" fill="#7e5e24"/><circle cx="581.58" cy="300.82" r="4.01" fill="#ce6219"/><circle cx="621.6899999999999" cy="300.82" r="4.01" fill="#d86618"/><circle cx="661.8" cy="300.82" r="4.01" fill="#3c3426"/><circle cx="20.049999999999997" cy="340.93" r="4.01" fill="#161a27"/><circle cx="60.16" cy="340.93" r="4.01" fill="#cf9121"/><circle cx="100.27000000000001" cy="340.93" r="4.01" fill="#79411f"/><circle cx="140.38" cy="340.93" r="4.01" fill="#d89721"/><circle cx="180.48999999999998" cy="340.93" r="4.01" fill="#332e26"/><circle cx="220.6" cy="340.93" r="4.01" fill="#312c26"/><circle cx="260.71" cy="340.93" r="4.01" fill="#423726"/><circle cx="300.82" cy="340.93" r="4.01" fill="#453925"/><circle cx="340.93" cy="340.93" r="4.01" fill="#ad551c"/><circle cx="381.03999999999996" cy="340.93" r="4.01" fill="#785a24"/><circle cx="421.14" cy="340.93" r="4.01" fill="#282125"/><circle cx="461.25" cy="340.93" r="4.01" fill="#463a25"/><circle cx="501.36" cy="340.93" r="4.01" fill="#5a3522"/><circle cx="541.47" cy="340.93" r="4.01" fill="#9c4f1d"/><circle cx="581.58" cy="340.93" r="4.01" fill="#543222"/><circle cx="621.6899999999999" cy="340.93" r="4.01" fill="#f27016"/><circle cx="661.8" cy="340.93" r="4.01" fill="#f7ab20"/><circle cx="20.049999999999997" cy="381.03999999999996" r="4.01" fill="#a5521c"/><circle cx="60.16" cy="381.03999999999996" r="4.01" fill="#f67216"/><circle cx="100.27000000000001" cy="381.03999999999996" r="4.01" fill="#cf9121"/><circle cx="140.38" cy="381.03999999999996" r="4.01" fill="#121827"/><circle cx="180.48999999999998" cy="381.03999999999996" r="4.01" fill="#ca8e22"/><circle cx="220.6" cy="381.03999999999996" r="4.01" fill="#2f2b26"/><circle cx="260.71" cy="381.03999999999996" r="4.01" fill="#e86c17"/><circle cx="300.82" cy="381.03999999999996" r="4.01" fill="#121927"/><circle cx="340.93" cy="381.03999999999996" r="4.01" fill="#cc6119"/><circle cx="381.03999999999996" cy="381.03999999999996" r="4.01" fill="#c88d22"/><circle cx="421.14" cy="381.03999999999996" r="4.01" fill="#755824"/><circle cx="461.25" cy="381.03999999999996" r="4.01" fill="#8e491e"/><circle cx="501.36" cy="381.03999999999996" r="4.01" fill="#faad20"/><circle cx="541.47" cy="381.03999999999996" r="4.01" fill="#191b26"/><circle cx="581.58" cy="381.03999999999996" r="4.01" fill="#a0501d"/><circle cx="621.6899999999999" cy="381.03999999999996" r="4.01" fill="#ee6f17"/><circle cx="661.8" cy="381.03999999999996" r="4.01" fill="#6e5424"/><circle cx="20.049999999999997" cy="421.14" r="4.01" fill="#af561b"/><circle cx="60.16" cy="421.14" r="4.01" fill="#d69621"/><circle cx="100.27000000000001" cy="421.14" r="4.01" fill="#5a4625"/><circle cx="140.38" cy="421.14" r="4.01" fill="#221f26"/><circle cx="180.48999999999998" cy="421.14" r="4.01" fill="#c88d22"/><circle cx="220.6" cy="421.14" r="4.01" fill="#b4581b"/><circle cx="260.71" cy="421.14" r="4.01" fill="#b48022"/><circle cx="300.82" cy="421.14" r="4.01" fill="#613721"/><circle cx="340.93" cy="421.14" r="4.01" fill="#836124"/><circle cx="381.03999999999996" cy="421.14" r="4.01" fill="#c48a22"/><circle cx="421.14" cy="421.14" r="4.01" fill="#c25d1a"/><circle cx="461.25" cy="421.14" r="4.01" fill="#846124"/><circle cx="501.36" cy="421.14" r="4.01" fill="#614b25"/><circle cx="541.47" cy="421.14" r="4.01" fill="#4b3d25"/><circle cx="581.58" cy="421.14" r="4.01" fill="#382724"/><circle cx="621.6899999999999" cy="421.14" r="4.01" fill="#3b2924"/><circle cx="661.8" cy="421.14" r="4.01" fill="#d66519"/></g></svg>